<?xml version="1.0" encoding="utf-8"?>
<!-- Generator: Adobe Illustrator 19.2.1, SVG Export Plug-In . SVG Version: 6.00 Build 0)  -->
<svg version="1.1" id="Layer_1" xmlns="http://www.w3.org/2000/svg" xmlns:xlink="http://www.w3.org/1999/xlink" x="0px" y="0px"
	 viewBox="0 0 800 413.2" style="enable-background:new 0 0 800 413.2;" xml:space="preserve">
<style type="text/css">
	.st0{fill:none;stroke:#1A1A1A;stroke-width:6;stroke-miterlimit:10;}
	.st1{fill:#E6C57C;}
	.st2{fill:#1A1A1A;}
	.st3{fill:#EC1B41;}
	.st4{fill:url(#SVGID_1_);}
	.st5{fill:url(#SVGID_2_);}
	.st6{fill:url(#SVGID_3_);}
	.st7{fill:url(#SVGID_4_);}
	.st8{fill:url(#SVGID_5_);}
	.st9{fill:url(#SVGID_6_);}
	.st10{fill:url(#SVGID_7_);}
	.st11{fill:url(#SVGID_8_);}
	.st12{fill:url(#SVGID_9_);}
	.st13{fill:url(#SVGID_10_);}
	.st14{fill:url(#SVGID_11_);}
	.st15{fill:url(#SVGID_12_);}
	.st16{fill:url(#SVGID_13_);}
	.st17{opacity:0.4;}
	.st18{fill:#231F20;}
	.st19{opacity:0.7;fill:#E6C57C;}
	.st20{fill:#FFFFFF;}
	.st21{fill:#FFDD00;}
	.st22{fill-rule:evenodd;clip-rule:evenodd;}
	.st23{fill:url(#XMLID_2_);}
	.st24{fill:url(#XMLID_3_);}
	.st25{fill:url(#XMLID_4_);}
	.st26{fill:url(#XMLID_5_);}
</style>
<g>
	<path class="st0" d="M350.6,252c5,0,9.3,0.5,12.8,1.4c3.6,1,6.5,2.3,8.7,4.1c2.3,1.8,3.9,3.9,5,6.4c1.1,2.5,1.6,5.3,1.6,8.4
		c0,1.8-0.3,3.5-0.8,5.1c-0.5,1.6-1.3,3.2-2.5,4.6c-1.1,1.4-2.5,2.7-4.2,3.9c-1.7,1.2-3.7,2.1-6.1,3c10.5,2.4,15.7,8,15.7,17
		c0,3.2-0.6,6.2-1.8,9c-1.2,2.7-3,5.1-5.4,7.1c-2.4,2-5.3,3.5-8.7,4.7c-3.5,1.1-7.4,1.7-11.8,1.7h-28.8V252H350.6z M338.6,263V285
		h11.3c4.9,0,8.5-0.9,11-2.6c2.5-1.8,3.7-4.6,3.7-8.4c0-4-1.1-6.8-3.4-8.5c-2.3-1.7-5.8-2.5-10.6-2.5H338.6z M352.9,317.2
		c2.6,0,4.9-0.3,6.7-1c1.8-0.6,3.2-1.5,4.3-2.5c1.1-1.1,1.8-2.3,2.3-3.7c0.5-1.4,0.7-2.9,0.7-4.5c0-1.7-0.3-3.1-0.8-4.5
		c-0.5-1.3-1.4-2.4-2.5-3.4c-1.1-0.9-2.6-1.6-4.4-2.1c-1.8-0.5-3.9-0.7-6.4-0.7h-14.3v22.4H352.9z"/>
	<path class="st0" d="M389.8,281.7c6.2-5.7,13.7-8.6,22.5-8.6c3.2,0,6,0.5,8.5,1.6c2.5,1,4.6,2.5,6.3,4.3c1.7,1.8,3,4.1,3.9,6.6
		c0.9,2.6,1.3,5.4,1.3,8.4v34.2h-5.9c-1.2,0-2.2-0.2-2.9-0.6c-0.7-0.4-1.2-1.1-1.6-2.2l-1.2-3.9c-1.4,1.2-2.7,2.3-4,3.2
		c-1.3,0.9-2.7,1.7-4.1,2.3c-1.4,0.6-2.9,1.1-4.5,1.5c-1.6,0.3-3.4,0.5-5.3,0.5c-2.3,0-4.4-0.3-6.3-0.9c-1.9-0.6-3.6-1.5-5-2.8
		c-1.4-1.2-2.5-2.8-3.3-4.6c-0.8-1.8-1.2-4-1.2-6.4c0-1.4,0.2-2.7,0.7-4.1c0.5-1.4,1.2-2.6,2.2-3.9c1-1.2,2.4-2.4,4-3.5
		c1.7-1.1,3.7-2,6.1-2.9c2.4-0.8,5.2-1.5,8.4-2c3.2-0.5,6.9-0.8,11-0.9v-3.2c0-3.6-0.8-6.3-2.3-8.1c-1.5-1.7-3.8-2.6-6.7-2.6
		c-2.1,0-3.9,0.2-5.3,0.7c-1.4,0.5-2.6,1-3.7,1.7c-1.1,0.6-2,1.2-2.9,1.7c-0.9,0.5-1.8,0.7-2.9,0.7c-0.9,0-1.7-0.2-2.3-0.7
		c-0.6-0.5-1.1-1-1.5-1.7L389.8,281.7z M419.7,305.2c-3.8,0.2-6.9,0.5-9.5,1c-2.6,0.5-4.6,1.1-6.2,1.8c-1.5,0.7-2.7,1.6-3.3,2.6
		c-0.7,1-1,2.1-1,3.2c0,2.3,0.7,3.9,2,4.9c1.4,1,3.1,1.5,5.3,1.5c2.7,0,5-0.5,6.9-1.5c2-1,3.9-2.4,5.7-4.4V305.2z"/>
	<path class="st0" d="M483.6,285.6c-0.4,0.5-0.8,0.9-1.1,1.2c-0.4,0.3-0.9,0.4-1.6,0.4c-0.7,0-1.3-0.2-2-0.6
		c-0.6-0.4-1.4-0.9-2.3-1.4c-0.9-0.5-1.9-1-3.1-1.4c-1.2-0.4-2.7-0.6-4.5-0.6c-2.3,0-4.3,0.4-6,1.2c-1.7,0.8-3.2,2-4.3,3.6
		c-1.1,1.5-2,3.4-2.6,5.6c-0.6,2.2-0.8,4.7-0.8,7.5c0,2.9,0.3,5.5,0.9,7.7c0.6,2.3,1.5,4.1,2.7,5.7c1.2,1.5,2.6,2.7,4.2,3.5
		c1.7,0.8,3.5,1.2,5.6,1.2c2.1,0,3.8-0.3,5-0.8c1.3-0.5,2.4-1.1,3.2-1.7c0.9-0.6,1.6-1.2,2.3-1.7c0.7-0.5,1.4-0.8,2.2-0.8
		c1.1,0,1.8,0.4,2.4,1.2l3.7,4.8c-1.4,1.7-3,3.1-4.7,4.3c-1.7,1.1-3.4,2.1-5.3,2.7c-1.8,0.7-3.7,1.2-5.6,1.5
		c-1.9,0.3-3.8,0.4-5.7,0.4c-3.3,0-6.5-0.6-9.5-1.9c-3-1.2-5.5-3.1-7.8-5.5c-2.2-2.4-4-5.3-5.3-8.8c-1.3-3.5-1.9-7.4-1.9-11.9
		c0-4,0.6-7.7,1.7-11.1c1.1-3.4,2.8-6.3,5-8.8c2.2-2.5,5-4.4,8.2-5.8c3.3-1.4,7-2.1,11.3-2.1c4,0,7.6,0.7,10.6,2
		c3,1.3,5.8,3.2,8.2,5.6L483.6,285.6z"/>
	<path class="st0" d="M533.7,285.6c-0.4,0.5-0.8,0.9-1.1,1.2c-0.4,0.3-0.9,0.4-1.6,0.4c-0.7,0-1.3-0.2-2-0.6
		c-0.6-0.4-1.4-0.9-2.3-1.4c-0.9-0.5-1.9-1-3.1-1.4c-1.2-0.4-2.7-0.6-4.5-0.6c-2.3,0-4.3,0.4-6,1.2c-1.7,0.8-3.2,2-4.3,3.6
		c-1.1,1.5-2,3.4-2.6,5.6c-0.6,2.2-0.8,4.7-0.8,7.5c0,2.9,0.3,5.5,0.9,7.7c0.6,2.3,1.5,4.1,2.7,5.7c1.2,1.5,2.6,2.7,4.2,3.5
		c1.7,0.8,3.5,1.2,5.6,1.2c2.1,0,3.8-0.3,5-0.8c1.3-0.5,2.4-1.1,3.2-1.7c0.9-0.6,1.6-1.2,2.3-1.7c0.7-0.5,1.4-0.8,2.2-0.8
		c1.1,0,1.8,0.4,2.4,1.2l3.7,4.8c-1.4,1.7-3,3.1-4.7,4.3c-1.7,1.1-3.4,2.1-5.3,2.7c-1.8,0.7-3.7,1.2-5.6,1.5
		c-1.9,0.3-3.8,0.4-5.7,0.4c-3.3,0-6.5-0.6-9.5-1.9c-3-1.2-5.5-3.1-7.8-5.5c-2.2-2.4-4-5.3-5.3-8.8c-1.3-3.5-1.9-7.4-1.9-11.9
		c0-4,0.6-7.7,1.7-11.1c1.1-3.4,2.8-6.3,5-8.8c2.2-2.5,5-4.4,8.2-5.8c3.3-1.4,7-2.1,11.3-2.1c4,0,7.6,0.7,10.6,2
		c3,1.3,5.8,3.2,8.2,5.6L533.7,285.6z"/>
	<path class="st0" d="M544.6,281.7c6.2-5.7,13.7-8.6,22.5-8.6c3.2,0,6,0.5,8.5,1.6c2.5,1,4.6,2.5,6.3,4.3c1.7,1.8,3,4.1,3.9,6.6
		c0.9,2.6,1.3,5.4,1.3,8.4v34.2h-5.9c-1.2,0-2.2-0.2-2.9-0.6c-0.7-0.4-1.2-1.1-1.6-2.2l-1.2-3.9c-1.4,1.2-2.7,2.3-4,3.2
		c-1.3,0.9-2.7,1.7-4.1,2.3c-1.4,0.6-2.9,1.1-4.5,1.5c-1.6,0.3-3.4,0.5-5.3,0.5c-2.3,0-4.4-0.3-6.3-0.9c-1.9-0.6-3.6-1.5-5-2.8
		c-1.4-1.2-2.5-2.8-3.3-4.6c-0.8-1.8-1.2-4-1.2-6.4c0-1.4,0.2-2.7,0.7-4.1c0.5-1.4,1.2-2.6,2.2-3.9c1-1.2,2.4-2.4,4-3.5
		c1.7-1.1,3.7-2,6.1-2.9c2.4-0.8,5.2-1.5,8.4-2c3.2-0.5,6.9-0.8,11-0.9v-3.2c0-3.6-0.8-6.3-2.3-8.1c-1.5-1.7-3.8-2.6-6.7-2.6
		c-2.1,0-3.9,0.2-5.3,0.7c-1.4,0.5-2.6,1-3.7,1.7c-1.1,0.6-2,1.2-2.9,1.7c-0.9,0.5-1.8,0.7-2.9,0.7c-0.9,0-1.7-0.2-2.3-0.7
		c-0.6-0.5-1.1-1-1.5-1.7L544.6,281.7z M574.5,305.2c-3.8,0.2-6.9,0.5-9.5,1c-2.6,0.5-4.6,1.1-6.2,1.8c-1.5,0.7-2.7,1.6-3.3,2.6
		c-0.7,1-1,2.1-1,3.2c0,2.3,0.7,3.9,2,4.9c1.4,1,3.1,1.5,5.3,1.5c2.7,0,5-0.5,6.9-1.5c2-1,3.9-2.4,5.7-4.4V305.2z"/>
	<path class="st0" d="M611.9,283.6c1.7-3.2,3.7-5.8,6-7.6c2.3-1.8,5.1-2.8,8.2-2.8c2.5,0,4.5,0.5,6,1.6l-0.8,9.8
		c-0.2,0.6-0.4,1.1-0.8,1.3c-0.3,0.3-0.8,0.4-1.3,0.4c-0.5,0-1.3-0.1-2.3-0.3c-1-0.2-2.1-0.3-3-0.3c-1.4,0-2.7,0.2-3.9,0.6
		c-1.1,0.4-2.1,1-3,1.8c-0.9,0.8-1.7,1.8-2.4,2.9c-0.7,1.1-1.3,2.4-1.9,3.9v33.4h-13v-54.2h7.7c1.3,0,2.3,0.2,2.8,0.7
		c0.5,0.5,0.9,1.3,1.1,2.6L611.9,283.6z"/>
	<path class="st0" d="M637.1,281.7c6.2-5.7,13.7-8.6,22.5-8.6c3.2,0,6,0.5,8.5,1.6c2.5,1,4.6,2.5,6.3,4.3c1.7,1.8,3,4.1,3.9,6.6
		c0.9,2.6,1.3,5.4,1.3,8.4v34.2h-5.9c-1.2,0-2.2-0.2-2.9-0.6c-0.7-0.4-1.2-1.1-1.6-2.2l-1.2-3.9c-1.4,1.2-2.7,2.3-4,3.2
		c-1.3,0.9-2.7,1.7-4.1,2.3c-1.4,0.6-2.9,1.1-4.5,1.5c-1.6,0.3-3.4,0.5-5.3,0.5c-2.3,0-4.4-0.3-6.3-0.9c-1.9-0.6-3.6-1.5-5-2.8
		c-1.4-1.2-2.5-2.8-3.3-4.6c-0.8-1.8-1.2-4-1.2-6.4c0-1.4,0.2-2.7,0.7-4.1c0.5-1.4,1.2-2.6,2.2-3.9c1-1.2,2.4-2.4,4-3.5
		c1.7-1.1,3.7-2,6.1-2.9c2.4-0.8,5.2-1.5,8.4-2c3.2-0.5,6.9-0.8,11-0.9v-3.2c0-3.6-0.8-6.3-2.3-8.1c-1.5-1.7-3.8-2.6-6.7-2.6
		c-2.1,0-3.9,0.2-5.3,0.7c-1.4,0.5-2.6,1-3.7,1.7c-1.1,0.6-2,1.2-2.9,1.7c-0.9,0.5-1.8,0.7-2.9,0.7c-0.9,0-1.7-0.2-2.3-0.7
		c-0.6-0.5-1.1-1-1.5-1.7L637.1,281.7z M667,305.2c-3.8,0.2-6.9,0.5-9.5,1c-2.6,0.5-4.6,1.1-6.2,1.8c-1.5,0.7-2.7,1.6-3.3,2.6
		c-0.7,1-1,2.1-1,3.2c0,2.3,0.7,3.9,2,4.9c1.4,1,3.1,1.5,5.3,1.5c2.7,0,5-0.5,6.9-1.5c2-1,3.9-2.4,5.7-4.4V305.2z"/>
	<path class="st0" d="M709.4,329.2c-4.7,0-8.3-1.3-10.9-4c-2.5-2.7-3.8-6.3-3.8-11v-30.3h-5.5c-0.7,0-1.3-0.2-1.8-0.7
		c-0.5-0.5-0.7-1.1-0.7-2.1V276l8.7-1.4l2.7-14.8c0.2-0.7,0.5-1.2,1-1.6c0.5-0.4,1.1-0.6,1.9-0.6h6.8v17.1h14.5v9.3h-14.5v29.4
		c0,1.7,0.4,3,1.2,4c0.8,1,2,1.4,3.4,1.4c0.8,0,1.5-0.1,2-0.3c0.5-0.2,1-0.4,1.4-0.6s0.8-0.4,1.1-0.6c0.3-0.2,0.6-0.3,1-0.3
		c0.4,0,0.7,0.1,1,0.3c0.2,0.2,0.5,0.5,0.8,0.9l3.9,6.3c-1.9,1.6-4.1,2.8-6.5,3.6C714.6,328.8,712,329.2,709.4,329.2z"/>
	<g>
		<path class="st1" d="M349.9,250.5c5,0,9.3,0.5,12.8,1.4c3.6,1,6.5,2.3,8.7,4.1c2.3,1.8,3.9,3.9,5,6.4c1.1,2.5,1.6,5.3,1.6,8.4
			c0,1.8-0.3,3.5-0.8,5.1c-0.5,1.6-1.3,3.2-2.5,4.6c-1.1,1.4-2.5,2.7-4.2,3.9c-1.7,1.2-3.7,2.1-6.1,3c10.5,2.4,15.7,8,15.7,17
			c0,3.2-0.6,6.2-1.8,9c-1.2,2.7-3,5.1-5.4,7.1c-2.4,2-5.3,3.5-8.7,4.7c-3.5,1.1-7.4,1.7-11.8,1.7h-28.8v-76.4H349.9z M337.8,261.5
			v22.1h11.3c4.9,0,8.5-0.9,11-2.6c2.5-1.8,3.7-4.6,3.7-8.4c0-4-1.1-6.8-3.4-8.5c-2.3-1.7-5.8-2.5-10.6-2.5H337.8z M352.2,315.7
			c2.6,0,4.9-0.3,6.7-1s3.2-1.5,4.3-2.5c1.1-1.1,1.8-2.3,2.3-3.7c0.5-1.4,0.7-2.9,0.7-4.5c0-1.7-0.3-3.1-0.8-4.5
			c-0.5-1.3-1.4-2.4-2.5-3.4c-1.1-0.9-2.6-1.6-4.4-2.1c-1.8-0.5-3.9-0.7-6.4-0.7h-14.3v22.4H352.2z"/>
		<path class="st1" d="M389.1,280.2c6.2-5.7,13.7-8.6,22.5-8.6c3.2,0,6,0.5,8.5,1.6c2.5,1,4.6,2.5,6.3,4.3c1.7,1.8,3,4.1,3.9,6.6
			c0.9,2.6,1.3,5.4,1.3,8.4v34.2h-5.9c-1.2,0-2.2-0.2-2.9-0.6c-0.7-0.4-1.2-1.1-1.6-2.2l-1.2-3.9c-1.4,1.2-2.7,2.3-4,3.2
			c-1.3,0.9-2.7,1.7-4.1,2.3c-1.4,0.6-2.9,1.1-4.5,1.5c-1.6,0.3-3.4,0.5-5.3,0.5c-2.3,0-4.4-0.3-6.3-0.9c-1.9-0.6-3.6-1.5-5-2.8
			c-1.4-1.2-2.5-2.8-3.3-4.6c-0.8-1.8-1.2-4-1.2-6.4c0-1.4,0.2-2.7,0.7-4.1c0.5-1.4,1.2-2.6,2.2-3.9c1-1.2,2.4-2.4,4-3.5
			c1.7-1.1,3.7-2,6.1-2.9c2.4-0.8,5.2-1.5,8.4-2c3.2-0.5,6.9-0.8,11-0.9v-3.2c0-3.6-0.8-6.3-2.3-8.1c-1.5-1.7-3.8-2.6-6.7-2.6
			c-2.1,0-3.9,0.2-5.3,0.7c-1.4,0.5-2.6,1-3.7,1.7c-1.1,0.6-2,1.2-2.9,1.7c-0.9,0.5-1.8,0.7-2.9,0.7c-0.9,0-1.7-0.2-2.3-0.7
			c-0.6-0.5-1.1-1-1.5-1.7L389.1,280.2z M419,303.7c-3.8,0.2-6.9,0.5-9.5,1c-2.6,0.5-4.6,1.1-6.2,1.8c-1.5,0.7-2.7,1.6-3.3,2.6
			c-0.7,1-1,2.1-1,3.2c0,2.3,0.7,3.9,2,4.9c1.4,1,3.1,1.5,5.3,1.5c2.7,0,5-0.5,6.9-1.5c2-1,3.9-2.4,5.7-4.4V303.7z"/>
		<path class="st1" d="M482.9,284.1c-0.4,0.5-0.8,0.9-1.1,1.2c-0.4,0.3-0.9,0.4-1.6,0.4c-0.7,0-1.3-0.2-2-0.6
			c-0.6-0.4-1.4-0.9-2.3-1.4c-0.9-0.5-1.9-1-3.1-1.4c-1.2-0.4-2.7-0.6-4.5-0.6c-2.3,0-4.3,0.4-6,1.2c-1.7,0.8-3.2,2-4.3,3.6
			c-1.1,1.5-2,3.4-2.6,5.6c-0.6,2.2-0.8,4.7-0.8,7.5c0,2.9,0.3,5.5,0.9,7.7c0.6,2.3,1.5,4.1,2.7,5.7c1.2,1.5,2.6,2.7,4.2,3.5
			c1.7,0.8,3.5,1.2,5.6,1.2c2.1,0,3.8-0.3,5-0.8c1.3-0.5,2.4-1.1,3.2-1.7c0.9-0.6,1.6-1.2,2.3-1.7c0.7-0.5,1.4-0.8,2.2-0.8
			c1.1,0,1.8,0.4,2.4,1.2l3.7,4.8c-1.4,1.7-3,3.1-4.7,4.3c-1.7,1.1-3.4,2.1-5.3,2.7c-1.8,0.7-3.7,1.2-5.6,1.5
			c-1.9,0.3-3.8,0.4-5.7,0.4c-3.3,0-6.5-0.6-9.5-1.9c-3-1.2-5.5-3.1-7.8-5.5c-2.2-2.4-4-5.3-5.3-8.8c-1.3-3.5-1.9-7.4-1.9-11.9
			c0-4,0.6-7.7,1.7-11.1c1.1-3.4,2.8-6.3,5-8.8c2.2-2.5,5-4.4,8.2-5.8c3.3-1.4,7-2.1,11.3-2.1c4,0,7.6,0.7,10.6,2
			c3,1.3,5.8,3.2,8.2,5.6L482.9,284.1z"/>
		<path class="st1" d="M532.9,284.1c-0.4,0.5-0.8,0.9-1.1,1.2c-0.4,0.3-0.9,0.4-1.6,0.4c-0.7,0-1.3-0.2-2-0.6
			c-0.6-0.4-1.4-0.9-2.3-1.4c-0.9-0.5-1.9-1-3.1-1.4c-1.2-0.4-2.7-0.6-4.5-0.6c-2.3,0-4.3,0.4-6,1.2c-1.7,0.8-3.2,2-4.3,3.6
			c-1.1,1.5-2,3.4-2.6,5.6c-0.6,2.2-0.8,4.7-0.8,7.5c0,2.9,0.3,5.5,0.9,7.7c0.6,2.3,1.5,4.1,2.7,5.7c1.2,1.5,2.6,2.7,4.2,3.5
			c1.7,0.8,3.5,1.2,5.6,1.2c2.1,0,3.8-0.3,5-0.8c1.3-0.5,2.4-1.1,3.2-1.7c0.9-0.6,1.6-1.2,2.3-1.7c0.7-0.5,1.4-0.8,2.2-0.8
			c1.1,0,1.8,0.4,2.4,1.2l3.7,4.8c-1.4,1.7-3,3.1-4.7,4.3c-1.7,1.1-3.4,2.1-5.3,2.7c-1.8,0.7-3.7,1.2-5.6,1.5
			c-1.9,0.3-3.8,0.4-5.7,0.4c-3.3,0-6.5-0.6-9.5-1.9c-3-1.2-5.5-3.1-7.8-5.5c-2.2-2.4-4-5.3-5.3-8.8c-1.3-3.5-1.9-7.4-1.9-11.9
			c0-4,0.6-7.7,1.7-11.1c1.1-3.4,2.8-6.3,5-8.8c2.2-2.5,5-4.4,8.2-5.8c3.3-1.4,7-2.1,11.3-2.1c4,0,7.6,0.7,10.6,2
			c3,1.3,5.8,3.2,8.2,5.6L532.9,284.1z"/>
		<path class="st1" d="M543.8,280.2c6.2-5.7,13.7-8.6,22.5-8.6c3.2,0,6,0.5,8.5,1.6c2.5,1,4.6,2.5,6.3,4.3c1.7,1.8,3,4.1,3.9,6.6
			c0.9,2.6,1.3,5.4,1.3,8.4v34.2h-5.9c-1.2,0-2.2-0.2-2.9-0.6c-0.7-0.4-1.2-1.1-1.6-2.2l-1.2-3.9c-1.4,1.2-2.7,2.3-4,3.2
			c-1.3,0.9-2.7,1.7-4.1,2.3c-1.4,0.6-2.9,1.1-4.5,1.5c-1.6,0.3-3.4,0.5-5.3,0.5c-2.3,0-4.4-0.3-6.3-0.9s-3.6-1.5-5-2.8
			c-1.4-1.2-2.5-2.8-3.3-4.6c-0.8-1.8-1.2-4-1.2-6.4c0-1.4,0.2-2.7,0.7-4.1c0.5-1.4,1.2-2.6,2.2-3.9c1-1.2,2.4-2.4,4-3.5
			c1.7-1.1,3.7-2,6.1-2.9c2.4-0.8,5.2-1.5,8.4-2c3.2-0.5,6.9-0.8,11-0.9v-3.2c0-3.6-0.8-6.3-2.3-8.1c-1.5-1.7-3.8-2.6-6.7-2.6
			c-2.1,0-3.9,0.2-5.3,0.7c-1.4,0.5-2.6,1-3.7,1.7c-1.1,0.6-2,1.2-2.9,1.7c-0.9,0.5-1.8,0.7-2.9,0.7c-0.9,0-1.7-0.2-2.3-0.7
			c-0.6-0.5-1.1-1-1.5-1.7L543.8,280.2z M573.7,303.7c-3.8,0.2-6.9,0.5-9.5,1c-2.6,0.5-4.6,1.1-6.2,1.8c-1.5,0.7-2.7,1.6-3.3,2.6
			c-0.7,1-1,2.1-1,3.2c0,2.3,0.7,3.9,2,4.9c1.4,1,3.1,1.5,5.3,1.5c2.7,0,5-0.5,6.9-1.5c2-1,3.9-2.4,5.7-4.4V303.7z"/>
		<path class="st1" d="M611.1,282c1.7-3.2,3.7-5.8,6-7.6c2.3-1.8,5.1-2.8,8.2-2.8c2.5,0,4.5,0.5,6,1.6l-0.8,9.8
			c-0.2,0.6-0.4,1.1-0.8,1.3s-0.8,0.4-1.3,0.4c-0.5,0-1.3-0.1-2.3-0.3c-1-0.2-2.1-0.3-3-0.3c-1.4,0-2.7,0.2-3.9,0.6
			c-1.1,0.4-2.1,1-3,1.8c-0.9,0.8-1.7,1.8-2.4,2.9c-0.7,1.1-1.3,2.4-1.9,3.9v33.4h-13v-54.2h7.7c1.3,0,2.3,0.2,2.8,0.7
			c0.5,0.5,0.9,1.3,1.1,2.6L611.1,282z"/>
		<path class="st1" d="M636.4,280.2c6.2-5.7,13.7-8.6,22.5-8.6c3.2,0,6,0.5,8.5,1.6c2.5,1,4.6,2.5,6.3,4.3c1.7,1.8,3,4.1,3.9,6.6
			c0.9,2.6,1.3,5.4,1.3,8.4v34.2h-5.9c-1.2,0-2.2-0.2-2.9-0.6c-0.7-0.4-1.2-1.1-1.6-2.2l-1.2-3.9c-1.4,1.2-2.7,2.3-4,3.2
			c-1.3,0.9-2.7,1.7-4.1,2.3c-1.4,0.6-2.9,1.1-4.5,1.5c-1.6,0.3-3.4,0.5-5.3,0.5c-2.3,0-4.4-0.3-6.3-0.9s-3.6-1.5-5-2.8
			c-1.4-1.2-2.5-2.8-3.3-4.6c-0.8-1.8-1.2-4-1.2-6.4c0-1.4,0.2-2.7,0.7-4.1c0.5-1.4,1.2-2.6,2.2-3.9c1-1.2,2.4-2.4,4-3.5
			c1.7-1.1,3.7-2,6.1-2.9c2.4-0.8,5.2-1.5,8.4-2c3.2-0.5,6.9-0.8,11-0.9v-3.2c0-3.6-0.8-6.3-2.3-8.1c-1.5-1.7-3.8-2.6-6.7-2.6
			c-2.1,0-3.9,0.2-5.3,0.7c-1.4,0.5-2.6,1-3.7,1.7c-1.1,0.6-2,1.2-2.9,1.7c-0.9,0.5-1.8,0.7-2.9,0.7c-0.9,0-1.7-0.2-2.3-0.7
			c-0.6-0.5-1.1-1-1.5-1.7L636.4,280.2z M666.2,303.7c-3.8,0.2-6.9,0.5-9.5,1c-2.6,0.5-4.6,1.1-6.2,1.8c-1.5,0.7-2.7,1.6-3.3,2.6
			c-0.7,1-1,2.1-1,3.2c0,2.3,0.7,3.9,2,4.9c1.4,1,3.1,1.5,5.3,1.5c2.7,0,5-0.5,6.9-1.5c2-1,3.9-2.4,5.7-4.4V303.7z"/>
		<path class="st1" d="M708.6,327.7c-4.7,0-8.3-1.3-10.9-4c-2.5-2.7-3.8-6.3-3.8-11v-30.3h-5.5c-0.7,0-1.3-0.2-1.8-0.7
			c-0.5-0.5-0.7-1.1-0.7-2.1v-5.2l8.7-1.4l2.7-14.8c0.2-0.7,0.5-1.2,1-1.6c0.5-0.4,1.1-0.6,1.9-0.6h6.8v17.1h14.5v9.3h-14.5v29.4
			c0,1.7,0.4,3,1.2,4c0.8,1,2,1.4,3.4,1.4c0.8,0,1.5-0.1,2-0.3c0.5-0.2,1-0.4,1.4-0.6c0.4-0.2,0.8-0.4,1.1-0.6
			c0.3-0.2,0.6-0.3,1-0.3c0.4,0,0.7,0.1,1,0.3c0.2,0.2,0.5,0.5,0.8,0.9l3.9,6.3c-1.9,1.6-4.1,2.8-6.5,3.6
			C713.8,327.3,711.3,327.7,708.6,327.7z"/>
	</g>
	<g>
		<g>
			<path class="st2" d="M97,331.3c-12.5,0-18.5-4-23-8.3l-1-0.9l0.5-1.3c2.2-5.5,3.7-10.3,4.3-14.5l0.2-1.2l1.1-0.4
				c2.3-0.8,5.1-0.9,7.1-0.2l1.6,0.5l-0.2,1.7c-1,6.6-0.5,10.6,1.4,12.9c1.5,1.8,4.4,2.6,8.7,2.6c5.5,0,10.1-3.6,11.6-9
				c1.9-6.9-2.3-10.5-9.5-15.8c-7.5-5.6-16.9-12.5-13-27.3c2.9-11.1,12.7-17.7,26.3-17.7c7.3,0,13.6,2,17.7,5.6l0.9,0.8l-0.3,1.2
				c-1.3,5.3-2,9.3-2.4,13.6l-0.1,1.2l-1.2,0.5c-2,0.8-4.7,1-7,0.6l-1.8-0.3l0.1-1.8c0.4-5.3-0.3-8.9-2-10.7
				c-1.1-1.2-2.8-1.7-5.2-1.7c-6.6,0-10.2,2.8-11.7,9c-1.5,6.3,2.8,10.1,10.1,15.6c7.5,5.7,16.9,12.8,13.4,26.3
				C120.8,323.5,109.8,331.3,97,331.3z M77.7,321c4.3,3.8,9.5,6.3,19.3,6.3c11,0,20.4-6.6,22.9-16c2.9-10.9-4.3-16.3-11.9-22.1
				c-6.8-5.2-13.9-10.5-11.6-19.8c2-8,7.2-12.1,15.6-12.1c3.6,0,6.2,1,8.1,3c2.2,2.4,3.3,6.2,3.2,11.7c0.7,0,1.4-0.1,2-0.2
				c0.4-3.7,1-7.3,2-11.6c-3.3-2.4-8.4-3.8-14.1-3.8c-11.7,0-20.1,5.5-22.5,14.7c-3.2,12.2,3.9,17.4,11.5,23
				c6.7,5,13.7,10.1,10.9,20c-2,7.1-8.2,11.9-15.5,11.9c-5.6,0-9.3-1.3-11.7-4c-2.5-2.9-3.3-7.3-2.6-14.1c-0.6,0-1.2,0-1.8,0.1
				C80.8,312,79.5,316.2,77.7,321z"/>
		</g>
		<g>
			<path class="st2" d="M133.6,356.8h-14l15.8-60.1c0.6-2.4,1.8-6.8,1.4-7.7c-0.4-0.3-2.9-0.3-4.1-0.3h-2.2l0.2-2.2
				c0.1-1.7,0.3-3.5,1.4-5.1l0.5-0.8l0.9-0.1c3.1-0.3,11.1-2.7,14.2-4.2l0.7-0.4l0.8,0.3c4.3,1.5,3.7,6.2,3.1,8.5
				c4.9-5.3,10.6-9,16.2-9c3.2,0,5.8,1.2,7.4,3.4c3.1,4.1,3.1,11.2,0,21.9l0,0c-5.1,17.7-18.9,30-33.4,30c-1,0-2-0.1-3-0.3
				c-0.3,2.7-0.9,5.9-2.1,10.2L133.6,356.8z M124.8,352.8h5.7l3.3-12.6c1.4-5.3,2-8.7,2.1-11.6l0-2.5l2.4,0.5
				c1.8,0.4,3.4,0.6,4.5,0.6c12.8,0,25-11.2,29.6-27.1c3.4-12.2,1.9-16.8,0.6-18.4c-0.9-1.2-2.3-1.8-4.2-1.8
				c-5.7,0-11.9,5.3-16.8,11.9c2.3-2.8,6.5-7.2,10-7.2c1.7,0,3.2,0.7,4.2,2.1c2.4,3.2,2.1,9.8-0.8,19.5
				c-4.7,16.2-13.1,19.6-19.4,19.6c-2.8,0-5.2-0.4-7.2-1.2l-1.7-0.7l3.1-9.3c1.4-4.3,3.2-8.6,5.2-12.5h-3.8l2.6-5.4
				c2-3.9,3.4-7.7,4.4-12c0.7-2.7,0.5-3.7,0.2-4.2c-3.4,1.5-9.7,3.4-13.5,4c0,0.1-0.1,0.2-0.1,0.3c2.1,0.1,3.9,0.4,5,1.9
				c1.6,2.1,0.8,5.2-0.8,11.1L124.8,352.8z M142,321.3c1.2,0.3,2.5,0.4,3.9,0.4c7.1,0,12.3-5.6,15.5-16.7c2.8-9.4,2.6-14.4,1.4-16
				c-0.2-0.3-0.5-0.5-1-0.5c-2.4,0-12.5,9.6-18.1,27.1L142,321.3z"/>
		</g>
		<g>
			<path class="st2" d="M188.9,331.3c-4.4,0-7.7-1.5-9.9-4.5c-4.7-6.3-2.6-17.1-0.9-22.9c6-20.7,19.1-28,28.5-28
				c5.5,0,8.4,2.3,9.9,4.3c2,2.7,2.5,6.5,1.3,10.3l0,0c-3.2,10.1-17.2,16.5-27,17.7c-0.7,4.7-0.3,8.2,1.1,9.9
				c0.8,0.9,1.9,1.3,3.4,1.3c2.3,0,5.9-0.9,9.9-5.4l1.2-1.3l1.5,1.1c1.5,1.1,2.4,2.5,2.8,4.3l0.2,1l-0.6,0.8
				C205.9,325.1,198.6,331.3,188.9,331.3z M206.5,280c-12,0-21,12.6-24.7,25.1c-2.5,8.6-2.4,15.9,0.3,19.4c1.4,1.9,3.6,2.9,6.7,2.9
				c6.5,0,11.8-3.4,15.6-7.1c-3.6,2.7-6.9,3.3-9.2,3.3c-2.7,0-5-1-6.5-2.8c-2.4-2.9-3-7.8-1.7-14.7l0.3-1.4l0,0l0.7-2.8
				c3.3-12.8,9-20.5,15.3-20.5c2,0,3.7,0.8,4.8,2.3c1.5,2,1.8,4.9,0.9,8.2c-1.1,3.7-3.6,6.7-7.1,8.9c5.6-2.7,10.6-6.7,12.1-11.4
				c0.8-2.5,0.5-5-0.7-6.7C211.9,280.9,209.6,280,206.5,280z M203.2,285.5c-3.1,0-7.5,4.5-10.6,14.6c6.5-1.3,11-4.6,12.4-9.3
				c0.5-1.9,0.5-3.7-0.2-4.6C204.6,285.9,204.2,285.5,203.2,285.5z"/>
		</g>
		<g>
			<path class="st2" d="M228.3,331.3c-4.4,0-7.7-1.5-9.9-4.5c-4.7-6.3-2.6-17.1-0.9-22.9c6-20.7,19.1-28,28.5-28
				c5.5,0,8.4,2.3,9.9,4.3c2,2.7,2.5,6.5,1.3,10.3l0,0c-3.2,10.1-17.2,16.5-27,17.7c-0.7,4.7-0.3,8.2,1.1,9.9
				c0.8,0.9,1.9,1.3,3.4,1.3c2.3,0,5.9-0.9,9.9-5.4l1.2-1.3l1.5,1.1c1.5,1.1,2.4,2.5,2.8,4.3l0.2,1l-0.6,0.8
				C245.3,325.1,238.1,331.3,228.3,331.3z M246,280c-12,0-21,12.6-24.7,25.1c-2.5,8.6-2.4,15.9,0.3,19.4c1.4,1.9,3.6,2.9,6.7,2.9
				c6.5,0,11.8-3.4,15.6-7.1c-3.6,2.7-6.9,3.3-9.2,3.3c-2.7,0-5-1-6.5-2.8c-2.4-2.9-3-7.8-1.7-14.7l0.3-1.4l0,0l0.7-2.8
				c3.3-12.8,9-20.5,15.3-20.5c2,0,3.7,0.8,4.8,2.3c1.5,2,1.8,4.9,0.9,8.2c-1.1,3.7-3.6,6.7-7.1,8.9c5.6-2.7,10.6-6.7,12.1-11.4
				c0.8-2.5,0.5-5-0.7-6.7C251.4,280.9,249.1,280,246,280z M242.7,285.5c-3.1,0-7.5,4.5-10.6,14.6c6.5-1.3,11-4.6,12.4-9.3
				c0.5-1.9,0.5-3.7-0.2-4.6C244.1,285.9,243.7,285.5,242.7,285.5z"/>
		</g>
		<g>
			<path class="st2" d="M289.1,331.3c-3.8,0-5.8-1.7-6.8-3.1c-1.3-1.9-1.6-4.4-1.5-6.7c-5.1,5.7-11.1,9.8-17,9.8
				c-3.2,0-5.8-1.2-7.4-3.4c-3.1-4.1-3.1-11.2,0-21.9c5.1-17.7,18.9-30,33.4-30c0.9,0,1.8,0.1,2.8,0.2c0.4-1.9,0.9-3.8,1.4-5.9
				c0.7-2.7,1.7-6.7,1.4-7.7c-0.6-0.2-2.4-0.2-4.1-0.2h-2l0-2c0-1.9,0.5-3.8,1.3-5.1l0.5-0.9l1-0.1c3.1-0.3,11.1-2.7,14.2-4.2
				l0.7-0.4l0.8,0.3c4.9,1.7,3.4,7.4,3,9.3l-13.3,50.6c-0.8,3.1-2.1,7.9-2.4,10c0.9-0.2,2.2-0.9,4.4-2.7l1.5-1.2l1.3,1.4
				c1.3,1.4,1.8,3,2.1,4.2l0.3,1.1l-0.8,0.8C298.7,328.7,293.9,331.3,289.1,331.3z M287.3,305.2h4.3l-1.9,3.1c-0.7,1.2-2,4-3.6,7.9
				c-1.6,4.2-1.8,8-0.5,9.8c0.2,0.3,1,1.4,3.5,1.4c3.2,0,6.7-1.7,10.5-5.2c-1.8,1.1-3.3,1.8-5.1,1.8c-0.4,0-1.7,0-2.6-1.1
				c-1.3-1.6-0.8-3.9,1.9-14l13.3-50.6c0.7-2.6,0.5-3.7,0.2-4.1c-3.4,1.5-9.7,3.4-13.5,4c0,0.1-0.1,0.2-0.1,0.3
				c2.3,0.1,3.9,0.4,5,1.7c1.5,2,0.9,4.9-0.7,11.2c-0.7,2.8-1.3,5.3-1.7,7.6l-0.4,2.1l-2-0.5c-1.3-0.3-2.7-0.5-3.9-0.5
				c-12.8,0-25,11.2-29.6,27.1c-3.4,12.2-1.9,16.8-0.6,18.4c0.9,1.2,2.3,1.8,4.2,1.8c5.7,0,11.9-5.3,16.8-11.9
				c-2.3,2.8-6.5,7.2-10,7.2c-1.7,0-3.2-0.7-4.2-2.1c-2.4-3.2-2.1-9.8,0.8-19.5c4.7-16.2,13.1-19.6,19.4-19.6c2.8,0,5.2,0.4,7.2,1.2
				l1.7,0.7l-3.1,9.3C291.1,297.1,289.3,301.3,287.3,305.2z M286.6,285.5c-7.1,0-12.3,5.6-15.5,16.7c-2.8,9.4-2.6,14.4-1.4,16
				c0.3,0.3,0.5,0.5,1,0.5c2.4,0,12.5-9.6,18.1-27.1l0,0l1.9-5.6C289.4,285.6,288.1,285.5,286.6,285.5z"/>
		</g>
		<g>
			<path class="st3" d="M128.9,258c-1.2,4.9-2,9.1-2.4,13.9c-1.7,0.6-4,0.9-6,0.5c0.8-11.2-2.9-14.6-9.2-14.6c-7,0-11.8,3-13.7,10.6
				c-4.2,17.3,29.5,19.1,23.5,41.9c-2.7,10.5-13.2,17.5-24.8,17.5c-11,0-16.8-3.1-21.6-7.8c2.1-5.1,3.7-10.1,4.4-15
				c1.8-0.6,4.2-0.8,5.8-0.2c-1.9,12.6,1.1,17.8,12,17.8c6.4,0,11.8-4.2,13.5-10.5c5.2-18.6-29.1-17.9-22.4-43
				c2.6-9.9,11.4-16.2,24.4-16.2C119.9,252.9,125.6,255.1,128.9,258z"/>
		</g>
		<g>
			<path class="st3" d="M173.7,299.1c-4.8,16.6-17.5,28.6-31.5,28.6c-1.5,0-3.4-0.3-4.9-0.6c0,2.8-0.5,6.1-2.1,12.1l-3.7,14.1h-9.8
				l15.2-57.6c2.7-10,2.3-10.5-4.6-10.5c0.1-1.5,0.3-3,1-4.1c3.5-0.3,11.7-2.8,14.9-4.4c2.2,0.8,2.7,2.9,1.7,6.9
				c-1,4.3-2.5,8.3-4.5,12.4l-1.2,2.5h0.2c4.9-10.9,14.8-22.1,23.8-22.1C175.4,276.3,178.2,283.1,173.7,299.1z M161.3,285.1
				c-3.8,0-14.3,10.7-20,28.5l-2.5,7.6c1.9,0.8,4.1,1.1,6.5,1.1c8.8,0,14.4-7.4,17.4-18.1C166.5,291.9,165.7,285.1,161.3,285.1z"/>
		</g>
		<g>
			<path class="st3" d="M215.2,288.4c-3,9.5-17.5,15.9-26.8,16.5c-1.4,7.7-0.8,15.1,6.2,15.1c3.5,0,7.5-1.7,11.4-6
				c1,0.8,1.7,1.7,2,3.1c-5.1,6-11.8,10.7-19.8,10.7c-12.4,0-12.2-13.6-8.9-24.8c5.3-18.1,16.8-26.5,26.6-26.5
				C214.3,276.4,217,282.6,215.2,288.4z M202.6,281.9c-4.6,0-10,6.1-13.3,19c7.9-0.8,15.1-4.4,17-11.1
				C207.6,285.4,206.2,281.9,202.6,281.9z"/>
		</g>
		<g>
			<path class="st3" d="M254.7,288.4c-3,9.5-17.5,15.9-26.8,16.5c-1.4,7.7-0.8,15.1,6.2,15.1c3.5,0,7.5-1.7,11.4-6
				c1,0.8,1.7,1.7,2,3.1c-5.1,6-11.8,10.7-19.8,10.7c-12.4,0-12.2-13.6-8.9-24.8c5.3-18.1,16.8-26.5,26.6-26.5
				C253.8,276.4,256.5,282.6,254.7,288.4z M242.1,281.9c-4.6,0-10,6.1-13.3,19c7.9-0.8,15.1-4.4,17-11.1
				C247.1,285.4,245.6,281.9,242.1,281.9z"/>
		</g>
		<g>
			<path class="st3" d="M295.1,307.7c-3.1,11.5-3,12.6-1.2,12.6c1.7,0,3.4-0.9,6.4-3.2c0.9,1,1.3,2,1.6,3.3c-4,4.1-8.6,7.3-13.5,7.3
				c-7.7,0-7.1-7.9-4.8-13.9c0.8-2,2.6-6.4,3.7-8.2H287c-4.9,10.9-14.8,22.1-23.8,22.1c-7.2,0-10.1-6.8-5.6-22.8
				c4.8-16.6,17.5-28.6,31.5-28.6c1.4,0,3,0.2,4.4,0.5c0.4-2.2,0.9-4.6,1.8-7.8c2.6-10.5,2.3-10.5-4.6-10.5c0-1.4,0.4-3,1-4.1
				c3.5-0.3,11.7-2.8,14.9-4.4c2.2,0.8,2.7,2.9,1.7,6.9L295.1,307.7z M290,290.6l2.5-7.6c-1.9-0.8-4.1-1.1-6.5-1.1
				c-8.8,0-14.4,7.4-17.4,18.1c-3.7,12.2-2.8,19,1.5,19C273.8,319.1,284.3,308.4,290,290.6z"/>
		</g>
		<g>
			
				<linearGradient id="SVGID_1_" gradientUnits="userSpaceOnUse" x1="104.9017" y1="328.2155" x2="118.2158" y2="252.7072" gradientTransform="matrix(1 0 -8.748867e-02 1 18.2851 0)">
				<stop  offset="0" style="stop-color:#FFFFFF;stop-opacity:0"/>
				<stop  offset="0.5448" style="stop-color:#FFF5E2;stop-opacity:0.3"/>
				<stop  offset="1" style="stop-color:#FFFEFC;stop-opacity:0.15"/>
			</linearGradient>
			<path class="st4" d="M128.9,258c-1.2,4.9-2,9.1-2.4,13.9c-1.7,0.6-4,0.9-6,0.5c0.8-11.2-2.9-14.6-9.2-14.6c-7,0-11.8,3-13.7,10.6
				c-4.2,17.3,29.5,19.1,23.5,41.9c-2.7,10.5-13.2,17.5-24.8,17.5c-11,0-16.8-3.1-21.6-7.8c2.1-5.1,3.7-10.1,4.4-15
				c1.8-0.6,4.2-0.8,5.8-0.2c-1.9,12.6,1.1,17.8,12,17.8c6.4,0,11.8-4.2,13.5-10.5c5.2-18.6-29.1-17.9-22.4-43
				c2.6-9.9,11.4-16.2,24.4-16.2C119.9,252.9,125.6,255.1,128.9,258z"/>
		</g>
		<g>
			
				<linearGradient id="SVGID_2_" gradientUnits="userSpaceOnUse" x1="148.8462" y1="355.8291" x2="163.227" y2="274.2716" gradientTransform="matrix(1 0 -8.748867e-02 1 18.2851 0)">
				<stop  offset="0" style="stop-color:#FFFFFF;stop-opacity:0"/>
				<stop  offset="0.5448" style="stop-color:#FFF5E2;stop-opacity:0.3"/>
				<stop  offset="1" style="stop-color:#FFFEFC;stop-opacity:0.15"/>
			</linearGradient>
			<path class="st5" d="M173.7,299.1c-4.8,16.6-17.5,28.6-31.5,28.6c-1.5,0-3.4-0.3-4.9-0.6c0,2.8-0.5,6.1-2.1,12.1l-3.7,14.1h-9.8
				l15.2-57.6c2.7-10,2.3-10.5-4.6-10.5c0.1-1.5,0.3-3,1-4.1c3.5-0.3,11.7-2.8,14.9-4.4c2.2,0.8,2.7,2.9,1.7,6.9
				c-1,4.3-2.5,8.3-4.5,12.4l-1.2,2.5h0.2c4.9-10.9,14.8-22.1,23.8-22.1C175.4,276.3,178.2,283.1,173.7,299.1z M161.3,285.1
				c-3.8,0-14.3,10.7-20,28.5l-2.5,7.6c1.9,0.8,4.1,1.1,6.5,1.1c8.8,0,14.4-7.4,17.4-18.1C166.5,291.9,165.7,285.1,161.3,285.1z"/>
		</g>
		<g>
			
				<linearGradient id="SVGID_3_" gradientUnits="userSpaceOnUse" x1="199.3131" y1="328.1514" x2="208.5727" y2="275.6379" gradientTransform="matrix(1 0 -8.748867e-02 1 18.2851 0)">
				<stop  offset="0" style="stop-color:#FFFFFF;stop-opacity:0"/>
				<stop  offset="0.5448" style="stop-color:#FFF5E2;stop-opacity:0.3"/>
				<stop  offset="1" style="stop-color:#FFFEFC;stop-opacity:0.15"/>
			</linearGradient>
			<path class="st6" d="M215.2,288.4c-3,9.5-17.5,15.9-26.8,16.5c-1.4,7.7-0.8,15.1,6.2,15.1c3.5,0,7.5-1.7,11.4-6
				c1,0.8,1.7,1.7,2,3.1c-5.1,6-11.8,10.7-19.8,10.7c-12.4,0-12.2-13.6-8.9-24.8c5.3-18.1,16.8-26.5,26.6-26.5
				C214.3,276.4,217,282.6,215.2,288.4z M202.6,281.9c-4.6,0-10,6.1-13.3,19c7.9-0.8,15.1-4.4,17-11.1
				C207.6,285.4,206.2,281.9,202.6,281.9z"/>
		</g>
		<g>
			
				<linearGradient id="SVGID_4_" gradientUnits="userSpaceOnUse" x1="238.7921" y1="328.1514" x2="248.0517" y2="275.6379" gradientTransform="matrix(1 0 -8.748867e-02 1 18.2851 0)">
				<stop  offset="0" style="stop-color:#FFFFFF;stop-opacity:0"/>
				<stop  offset="0.5448" style="stop-color:#FFF5E2;stop-opacity:0.3"/>
				<stop  offset="1" style="stop-color:#FFFEFC;stop-opacity:0.15"/>
			</linearGradient>
			<path class="st7" d="M254.7,288.4c-3,9.5-17.5,15.9-26.8,16.5c-1.4,7.7-0.8,15.1,6.2,15.1c3.5,0,7.5-1.7,11.4-6
				c1,0.8,1.7,1.7,2,3.1c-5.1,6-11.8,10.7-19.8,10.7c-12.4,0-12.2-13.6-8.9-24.8c5.3-18.1,16.8-26.5,26.6-26.5
				C253.8,276.4,256.5,282.6,254.7,288.4z M242.1,281.9c-4.6,0-10,6.1-13.3,19c7.9-0.8,15.1-4.4,17-11.1
				C247.1,285.4,245.6,281.9,242.1,281.9z"/>
		</g>
		<g>
			
				<linearGradient id="SVGID_5_" gradientUnits="userSpaceOnUse" x1="285.7919" y1="330.1065" x2="300.189" y2="248.4565" gradientTransform="matrix(1 0 -8.748867e-02 1 18.2851 0)">
				<stop  offset="0" style="stop-color:#FFFFFF;stop-opacity:0"/>
				<stop  offset="0.5448" style="stop-color:#FFF5E2;stop-opacity:0.3"/>
				<stop  offset="1" style="stop-color:#FFFEFC;stop-opacity:0.15"/>
			</linearGradient>
			<path class="st8" d="M295.1,307.7c-3.1,11.5-3,12.6-1.2,12.6c1.7,0,3.4-0.9,6.4-3.2c0.9,1,1.3,2,1.6,3.3c-4,4.1-8.6,7.3-13.5,7.3
				c-7.7,0-7.1-7.9-4.8-13.9c0.8-2,2.6-6.4,3.7-8.2H287c-4.9,10.9-14.8,22.1-23.8,22.1c-7.2,0-10.1-6.8-5.6-22.8
				c4.8-16.6,17.5-28.6,31.5-28.6c1.4,0,3,0.2,4.4,0.5c0.4-2.2,0.9-4.6,1.8-7.8c2.6-10.5,2.3-10.5-4.6-10.5c0-1.4,0.4-3,1-4.1
				c3.5-0.3,11.7-2.8,14.9-4.4c2.2,0.8,2.7,2.9,1.7,6.9L295.1,307.7z M290,290.6l2.5-7.6c-1.9-0.8-4.1-1.1-6.5-1.1
				c-8.8,0-14.4,7.4-17.4,18.1c-3.7,12.2-2.8,19,1.5,19C273.8,319.1,284.3,308.4,290,290.6z"/>
		</g>
	</g>
	<g>
		<linearGradient id="SVGID_6_" gradientUnits="userSpaceOnUse" x1="342.7778" y1="330.2059" x2="356.7932" y2="250.7209">
			<stop  offset="0" style="stop-color:#FFFFFF;stop-opacity:0"/>
			<stop  offset="0.5448" style="stop-color:#FFF5E2;stop-opacity:0.3"/>
			<stop  offset="1" style="stop-color:#FFFEFC;stop-opacity:0.15"/>
		</linearGradient>
		<path class="st9" d="M349.9,250.5c5,0,9.3,0.5,12.8,1.4c3.6,1,6.5,2.3,8.7,4.1c2.3,1.8,3.9,3.9,5,6.4c1.1,2.5,1.6,5.3,1.6,8.4
			c0,1.8-0.3,3.5-0.8,5.1c-0.5,1.6-1.3,3.2-2.5,4.6c-1.1,1.4-2.5,2.7-4.2,3.9c-1.7,1.2-3.7,2.1-6.1,3c10.5,2.4,15.7,8,15.7,17
			c0,3.2-0.6,6.2-1.8,9c-1.2,2.7-3,5.1-5.4,7.1c-2.4,2-5.3,3.5-8.7,4.7c-3.5,1.1-7.4,1.7-11.8,1.7h-28.8v-76.4H349.9z M337.8,261.5
			v22.1h11.3c4.9,0,8.5-0.9,11-2.6c2.5-1.8,3.7-4.6,3.7-8.4c0-4-1.1-6.8-3.4-8.5c-2.3-1.7-5.8-2.5-10.6-2.5H337.8z M352.2,315.7
			c2.6,0,4.9-0.3,6.7-1s3.2-1.5,4.3-2.5c1.1-1.1,1.8-2.3,2.3-3.7c0.5-1.4,0.7-2.9,0.7-4.5c0-1.7-0.3-3.1-0.8-4.5
			c-0.5-1.3-1.4-2.4-2.5-3.4c-1.1-0.9-2.6-1.6-4.4-2.1c-1.8-0.5-3.9-0.7-6.4-0.7h-14.3v22.4H352.2z"/>
		<linearGradient id="SVGID_7_" gradientUnits="userSpaceOnUse" x1="405.9429" y1="328.6753" x2="415.9344" y2="272.0103">
			<stop  offset="0" style="stop-color:#FFFFFF;stop-opacity:0"/>
			<stop  offset="0.5448" style="stop-color:#FFF5E2;stop-opacity:0.3"/>
			<stop  offset="1" style="stop-color:#FFFEFC;stop-opacity:0.15"/>
		</linearGradient>
		<path class="st10" d="M389.1,280.2c6.2-5.7,13.7-8.6,22.5-8.6c3.2,0,6,0.5,8.5,1.6c2.5,1,4.6,2.5,6.3,4.3c1.7,1.8,3,4.1,3.9,6.6
			c0.9,2.6,1.3,5.4,1.3,8.4v34.2h-5.9c-1.2,0-2.2-0.2-2.9-0.6c-0.7-0.4-1.2-1.1-1.6-2.2l-1.2-3.9c-1.4,1.2-2.7,2.3-4,3.2
			c-1.3,0.9-2.7,1.7-4.1,2.3c-1.4,0.6-2.9,1.1-4.5,1.5c-1.6,0.3-3.4,0.5-5.3,0.5c-2.3,0-4.4-0.3-6.3-0.9c-1.9-0.6-3.6-1.5-5-2.8
			c-1.4-1.2-2.5-2.8-3.3-4.6c-0.8-1.8-1.2-4-1.2-6.4c0-1.4,0.2-2.7,0.7-4.1c0.5-1.4,1.2-2.6,2.2-3.9c1-1.2,2.4-2.4,4-3.5
			c1.7-1.1,3.7-2,6.1-2.9c2.4-0.8,5.2-1.5,8.4-2c3.2-0.5,6.9-0.8,11-0.9v-3.2c0-3.6-0.8-6.3-2.3-8.1c-1.5-1.7-3.8-2.6-6.7-2.6
			c-2.1,0-3.9,0.2-5.3,0.7c-1.4,0.5-2.6,1-3.7,1.7c-1.1,0.6-2,1.2-2.9,1.7c-0.9,0.5-1.8,0.7-2.9,0.7c-0.9,0-1.7-0.2-2.3-0.7
			c-0.6-0.5-1.1-1-1.5-1.7L389.1,280.2z M419,303.7c-3.8,0.2-6.9,0.5-9.5,1c-2.6,0.5-4.6,1.1-6.2,1.8c-1.5,0.7-2.7,1.6-3.3,2.6
			c-0.7,1-1,2.1-1,3.2c0,2.3,0.7,3.9,2,4.9c1.4,1,3.1,1.5,5.3,1.5c2.7,0,5-0.5,6.9-1.5c2-1,3.9-2.4,5.7-4.4V303.7z"/>
		<linearGradient id="SVGID_8_" gradientUnits="userSpaceOnUse" x1="460.5177" y1="327.1266" x2="470.2754" y2="271.7878">
			<stop  offset="0" style="stop-color:#FFFFFF;stop-opacity:0"/>
			<stop  offset="0.5448" style="stop-color:#FFF5E2;stop-opacity:0.3"/>
			<stop  offset="1" style="stop-color:#FFFEFC;stop-opacity:0.15"/>
		</linearGradient>
		<path class="st11" d="M482.9,284.1c-0.4,0.5-0.8,0.9-1.1,1.2c-0.4,0.3-0.9,0.4-1.6,0.4c-0.7,0-1.3-0.2-2-0.6
			c-0.6-0.4-1.4-0.9-2.3-1.4c-0.9-0.5-1.9-1-3.1-1.4c-1.2-0.4-2.7-0.6-4.5-0.6c-2.3,0-4.3,0.4-6,1.2c-1.7,0.8-3.2,2-4.3,3.6
			c-1.1,1.5-2,3.4-2.6,5.6c-0.6,2.2-0.8,4.7-0.8,7.5c0,2.9,0.3,5.5,0.9,7.7c0.6,2.3,1.5,4.1,2.7,5.7c1.2,1.5,2.6,2.7,4.2,3.5
			c1.7,0.8,3.5,1.2,5.6,1.2c2.1,0,3.8-0.3,5-0.8c1.3-0.5,2.4-1.1,3.2-1.7c0.9-0.6,1.6-1.2,2.3-1.7c0.7-0.5,1.4-0.8,2.2-0.8
			c1.1,0,1.8,0.4,2.4,1.2l3.7,4.8c-1.4,1.7-3,3.1-4.7,4.3c-1.7,1.1-3.4,2.1-5.3,2.7c-1.8,0.7-3.7,1.2-5.6,1.5
			c-1.9,0.3-3.8,0.4-5.7,0.4c-3.3,0-6.5-0.6-9.5-1.9c-3-1.2-5.5-3.1-7.8-5.5c-2.2-2.4-4-5.3-5.3-8.8c-1.3-3.5-1.9-7.4-1.9-11.9
			c0-4,0.6-7.7,1.7-11.1c1.1-3.4,2.8-6.3,5-8.8c2.2-2.5,5-4.4,8.2-5.8c3.3-1.4,7-2.1,11.3-2.1c4,0,7.6,0.7,10.6,2
			c3,1.3,5.8,3.2,8.2,5.6L482.9,284.1z"/>
		<linearGradient id="SVGID_9_" gradientUnits="userSpaceOnUse" x1="510.5771" y1="327.1266" x2="520.3348" y2="271.7878">
			<stop  offset="0" style="stop-color:#FFFFFF;stop-opacity:0"/>
			<stop  offset="0.5448" style="stop-color:#FFF5E2;stop-opacity:0.3"/>
			<stop  offset="1" style="stop-color:#FFFEFC;stop-opacity:0.15"/>
		</linearGradient>
		<path class="st12" d="M532.9,284.1c-0.4,0.5-0.8,0.9-1.1,1.2c-0.4,0.3-0.9,0.4-1.6,0.4c-0.7,0-1.3-0.2-2-0.6
			c-0.6-0.4-1.4-0.9-2.3-1.4c-0.9-0.5-1.9-1-3.1-1.4c-1.2-0.4-2.7-0.6-4.5-0.6c-2.3,0-4.3,0.4-6,1.2c-1.7,0.8-3.2,2-4.3,3.6
			c-1.1,1.5-2,3.4-2.6,5.6c-0.6,2.2-0.8,4.7-0.8,7.5c0,2.9,0.3,5.5,0.9,7.7c0.6,2.3,1.5,4.1,2.7,5.7c1.2,1.5,2.6,2.7,4.2,3.5
			c1.7,0.8,3.5,1.2,5.6,1.2c2.1,0,3.8-0.3,5-0.8c1.3-0.5,2.4-1.1,3.2-1.7c0.9-0.6,1.6-1.2,2.3-1.7c0.7-0.5,1.4-0.8,2.2-0.8
			c1.1,0,1.8,0.4,2.4,1.2l3.7,4.8c-1.4,1.7-3,3.1-4.7,4.3c-1.7,1.1-3.4,2.1-5.3,2.7c-1.8,0.7-3.7,1.2-5.6,1.5
			c-1.9,0.3-3.8,0.4-5.7,0.4c-3.3,0-6.5-0.6-9.5-1.9c-3-1.2-5.5-3.1-7.8-5.5c-2.2-2.4-4-5.3-5.3-8.8c-1.3-3.5-1.9-7.4-1.9-11.9
			c0-4,0.6-7.7,1.7-11.1c1.1-3.4,2.8-6.3,5-8.8c2.2-2.5,5-4.4,8.2-5.8c3.3-1.4,7-2.1,11.3-2.1c4,0,7.6,0.7,10.6,2
			c3,1.3,5.8,3.2,8.2,5.6L532.9,284.1z"/>
		<linearGradient id="SVGID_10_" gradientUnits="userSpaceOnUse" x1="560.7141" y1="328.6753" x2="570.7056" y2="272.0105">
			<stop  offset="0" style="stop-color:#FFFFFF;stop-opacity:0"/>
			<stop  offset="0.5448" style="stop-color:#FFF5E2;stop-opacity:0.3"/>
			<stop  offset="1" style="stop-color:#FFFEFC;stop-opacity:0.15"/>
		</linearGradient>
		<path class="st13" d="M543.8,280.2c6.2-5.7,13.7-8.6,22.5-8.6c3.2,0,6,0.5,8.5,1.6c2.5,1,4.6,2.5,6.3,4.3c1.7,1.8,3,4.1,3.9,6.6
			c0.9,2.6,1.3,5.4,1.3,8.4v34.2h-5.9c-1.2,0-2.2-0.2-2.9-0.6c-0.7-0.4-1.2-1.1-1.6-2.2l-1.2-3.9c-1.4,1.2-2.7,2.3-4,3.2
			c-1.3,0.9-2.7,1.7-4.1,2.3c-1.4,0.6-2.9,1.1-4.5,1.5c-1.6,0.3-3.4,0.5-5.3,0.5c-2.3,0-4.4-0.3-6.3-0.9s-3.6-1.5-5-2.8
			c-1.4-1.2-2.5-2.8-3.3-4.6c-0.8-1.8-1.2-4-1.2-6.4c0-1.4,0.2-2.7,0.7-4.1c0.5-1.4,1.2-2.6,2.2-3.9c1-1.2,2.4-2.4,4-3.5
			c1.7-1.1,3.7-2,6.1-2.9c2.4-0.8,5.2-1.5,8.4-2c3.2-0.5,6.9-0.8,11-0.9v-3.2c0-3.6-0.8-6.3-2.3-8.1c-1.5-1.7-3.8-2.6-6.7-2.6
			c-2.1,0-3.9,0.2-5.3,0.7c-1.4,0.5-2.6,1-3.7,1.7c-1.1,0.6-2,1.2-2.9,1.7c-0.9,0.5-1.8,0.7-2.9,0.7c-0.9,0-1.7-0.2-2.3-0.7
			c-0.6-0.5-1.1-1-1.5-1.7L543.8,280.2z M573.7,303.7c-3.8,0.2-6.9,0.5-9.5,1c-2.6,0.5-4.6,1.1-6.2,1.8c-1.5,0.7-2.7,1.6-3.3,2.6
			c-0.7,1-1,2.1-1,3.2c0,2.3,0.7,3.9,2,4.9c1.4,1,3.1,1.5,5.3,1.5c2.7,0,5-0.5,6.9-1.5c2-1,3.9-2.4,5.7-4.4V303.7z"/>
		<linearGradient id="SVGID_11_" gradientUnits="userSpaceOnUse" x1="605.8273" y1="328.0605" x2="616.1037" y2="269.7804">
			<stop  offset="0" style="stop-color:#FFFFFF;stop-opacity:0"/>
			<stop  offset="0.5448" style="stop-color:#FFF5E2;stop-opacity:0.3"/>
			<stop  offset="1" style="stop-color:#FFFEFC;stop-opacity:0.15"/>
		</linearGradient>
		<path class="st14" d="M611.1,282c1.7-3.2,3.7-5.8,6-7.6c2.3-1.8,5.1-2.8,8.2-2.8c2.5,0,4.5,0.5,6,1.6l-0.8,9.8
			c-0.2,0.6-0.4,1.1-0.8,1.3s-0.8,0.4-1.3,0.4c-0.5,0-1.3-0.1-2.3-0.3c-1-0.2-2.1-0.3-3-0.3c-1.4,0-2.7,0.2-3.9,0.6
			c-1.1,0.4-2.1,1-3,1.8c-0.9,0.8-1.7,1.8-2.4,2.9c-0.7,1.1-1.3,2.4-1.9,3.9v33.4h-13v-54.2h7.7c1.3,0,2.3,0.2,2.8,0.7
			c0.5,0.5,0.9,1.3,1.1,2.6L611.1,282z"/>
		<linearGradient id="SVGID_12_" gradientUnits="userSpaceOnUse" x1="653.2277" y1="328.6753" x2="663.2192" y2="272.0105">
			<stop  offset="0" style="stop-color:#FFFFFF;stop-opacity:0"/>
			<stop  offset="0.5448" style="stop-color:#FFF5E2;stop-opacity:0.3"/>
			<stop  offset="1" style="stop-color:#FFFEFC;stop-opacity:0.15"/>
		</linearGradient>
		<path class="st15" d="M636.4,280.2c6.2-5.7,13.7-8.6,22.5-8.6c3.2,0,6,0.5,8.5,1.6c2.5,1,4.6,2.5,6.3,4.3c1.7,1.8,3,4.1,3.9,6.6
			c0.9,2.6,1.3,5.4,1.3,8.4v34.2h-5.9c-1.2,0-2.2-0.2-2.9-0.6c-0.7-0.4-1.2-1.1-1.6-2.2l-1.2-3.9c-1.4,1.2-2.7,2.3-4,3.2
			c-1.3,0.9-2.7,1.7-4.1,2.3c-1.4,0.6-2.9,1.1-4.5,1.5c-1.6,0.3-3.4,0.5-5.3,0.5c-2.3,0-4.4-0.3-6.3-0.9s-3.6-1.5-5-2.8
			c-1.4-1.2-2.5-2.8-3.3-4.6c-0.8-1.8-1.2-4-1.2-6.4c0-1.4,0.2-2.7,0.7-4.1c0.5-1.4,1.2-2.6,2.2-3.9c1-1.2,2.4-2.4,4-3.5
			c1.7-1.1,3.7-2,6.1-2.9c2.4-0.8,5.2-1.5,8.4-2c3.2-0.5,6.9-0.8,11-0.9v-3.2c0-3.6-0.8-6.3-2.3-8.1c-1.5-1.7-3.8-2.6-6.7-2.6
			c-2.1,0-3.9,0.2-5.3,0.7c-1.4,0.5-2.6,1-3.7,1.7c-1.1,0.6-2,1.2-2.9,1.7c-0.9,0.5-1.8,0.7-2.9,0.7c-0.9,0-1.7-0.2-2.3-0.7
			c-0.6-0.5-1.1-1-1.5-1.7L636.4,280.2z M666.2,303.7c-3.8,0.2-6.9,0.5-9.5,1c-2.6,0.5-4.6,1.1-6.2,1.8c-1.5,0.7-2.7,1.6-3.3,2.6
			c-0.7,1-1,2.1-1,3.2c0,2.3,0.7,3.9,2,4.9c1.4,1,3.1,1.5,5.3,1.5c2.7,0,5-0.5,6.9-1.5c2-1,3.9-2.4,5.7-4.4V303.7z"/>
		<linearGradient id="SVGID_13_" gradientUnits="userSpaceOnUse" x1="699.5107" y1="326.3982" x2="711.7656" y2="256.8972">
			<stop  offset="0" style="stop-color:#FFFFFF;stop-opacity:0"/>
			<stop  offset="0.5448" style="stop-color:#FFF5E2;stop-opacity:0.3"/>
			<stop  offset="1" style="stop-color:#FFFEFC;stop-opacity:0.15"/>
		</linearGradient>
		<path class="st16" d="M708.6,327.7c-4.7,0-8.3-1.3-10.9-4c-2.5-2.7-3.8-6.3-3.8-11v-30.3h-5.5c-0.7,0-1.3-0.2-1.8-0.7
			c-0.5-0.5-0.7-1.1-0.7-2.1v-5.2l8.7-1.4l2.7-14.8c0.2-0.7,0.5-1.2,1-1.6c0.5-0.4,1.1-0.6,1.9-0.6h6.8v17.1h14.5v9.3h-14.5v29.4
			c0,1.7,0.4,3,1.2,4c0.8,1,2,1.4,3.4,1.4c0.8,0,1.5-0.1,2-0.3c0.5-0.2,1-0.4,1.4-0.6c0.4-0.2,0.8-0.4,1.1-0.6
			c0.3-0.2,0.6-0.3,1-0.3c0.4,0,0.7,0.1,1,0.3c0.2,0.2,0.5,0.5,0.8,0.9l3.9,6.3c-1.9,1.6-4.1,2.8-6.5,3.6
			C713.8,327.3,711.3,327.7,708.6,327.7z"/>
	</g>
	<g id="XMLID_4854_">
		<g id="XMLID_5133_" class="st17">
			<path id="XMLID_5134_" class="st18" d="M400.7,213.8c-1.1,0-2.1-0.2-2.9-0.7L324.1,171c-1.7-0.9-2.9-3.2-2.9-5.1V81.8
				c0-1.9,1.3-4.1,2.9-5.1l73.6-42.1c1.6-0.9,4.2-0.9,5.9,0l73.6,42.1c1.7,0.9,2.9,3.2,2.9,5.1V166c0,1.9-1.3,4.1-2.9,5.1
				l-73.6,42.1C402.8,213.6,401.7,213.8,400.7,213.8z"/>
		</g>
		<path id="XMLID_5130_" class="st1" d="M400.7,223.9c-1.2,0-2.4-0.3-3.3-0.8l-81.9-46.8c-1.8-1.1-3.3-3.5-3.3-5.6V77.1
			c0-2.1,1.4-4.6,3.3-5.6l81.9-46.8c1.8-1,4.7-1,6.5,0l81.9,46.8c1.8,1.1,3.3,3.5,3.3,5.6v93.6c0,2.1-1.4,4.6-3.3,5.6L404,223.1
			C403,223.7,401.9,223.9,400.7,223.9z M400.7,26c-0.8,0-1.6,0.2-2.2,0.5l-81.9,46.8c-1.2,0.7-2.2,2.5-2.2,3.8v93.6
			c0,1.3,1,3.1,2.2,3.8l81.9,46.8c1.2,0.7,3.3,0.7,4.5,0l81.9-46.8c1.2-0.7,2.2-2.4,2.2-3.8V77.1c0-1.3-1-3.1-2.2-3.8l-81.9-46.8
			C402.3,26.1,401.5,26,400.7,26z"/>
		<path id="XMLID_5127_" class="st19" d="M400.7,213.9c-1.1,0-2.1-0.2-2.9-0.7L324,171.1c-1.7-0.9-3-3.2-3-5.1V81.8
			c0-1.9,1.3-4.1,3-5.1l73.7-42.1c1.6-0.9,4.2-0.9,5.9,0l73.7,42.1c1.7,0.9,3,3.2,3,5.1V166c0,1.9-1.3,4.1-3,5.1l-73.7,42.1
			C402.8,213.7,401.7,213.9,400.7,213.9z M400.7,35.8c-0.7,0-1.5,0.2-2,0.5L325,78.3c-1.1,0.6-2,2.2-2,3.4V166c0,1.2,0.9,2.8,2,3.4
			l73.7,42.1c1.1,0.6,2.9,0.6,4,0l73.7-42.1c1.1-0.6,2-2.2,2-3.4V81.8c0-1.2-0.9-2.8-2-3.4l-73.7-42.1
			C402.2,35.9,401.4,35.8,400.7,35.8z"/>
		<g id="XMLID_5123_">
			<path id="XMLID_5124_" class="st20" d="M371.5,140.3L371.5,140.3c-5.4,0-10.7-1.4-15.5-4.1c-7.4-4.1-12.7-10.9-15-19.1
				c-2.3-8.1-1.3-16.7,2.9-24.1c4.1-7.4,10.9-12.7,19.1-15l28.1-7.9c8.1-2.3,16.7-1.3,24.1,2.9c7.4,4.1,12.7,10.9,15,19.1
				c2.3,8.2,1.3,16.7-2.9,24.1c-4.1,7.4-10.9,12.7-19.1,15l-28.1,7.9C377.3,139.9,374.4,140.3,371.5,140.3z M399.7,71.8
				c-2.6,0-5.3,0.4-7.8,1.1l-28.1,7.9c-7.4,2.1-13.6,6.9-17.4,13.7c-3.8,6.7-4.7,14.5-2.6,21.9c2.1,7.4,6.9,13.6,13.7,17.4
				c6.7,3.7,14.6,4.7,21.9,2.6l28.1-7.9c7.4-2.1,13.6-6.9,17.4-13.7c3.8-6.7,4.7-14.5,2.6-21.9c-2.1-7.4-6.9-13.6-13.7-17.4
				C409.4,73.1,404.6,71.8,399.7,71.8z"/>
		</g>
		<g id="XMLID_4990_">
			<path id="XMLID_4991_" class="st20" d="M442.3,165.5h-66.4c-3.2,0-5.8-2.6-5.8-5.8v-21.5l1.4,0c2.4-0.1,4.8-0.5,7.1-1.1l29.2-8.2
				c7.7-2.2,14.1-7.2,18.1-14.2c1.1-2,2-4.1,2.7-6.4l0.3-1h13.5c3.2,0,5.8,2.6,5.8,5.8v46.7C448,162.9,445.4,165.5,442.3,165.5z
				 M372.9,140.9v18.8c0,1.6,1.3,3,3,3h66.4c1.6,0,3-1.3,3-3V113c0-1.6-1.3-3-3-3h-11.4c-0.7,2.1-1.6,4.2-2.6,6
				c-4.3,7.6-11.3,13.2-19.8,15.5l-29.2,8.2C377.2,140.3,375.1,140.7,372.9,140.9z"/>
		</g>
		<g id="XMLID_4987_">
			<g id="XMLID_4988_">
				<path class="st21" d="M372.9,140.9v18.8c0,1.6,1.3,3,3,3h66.4c1.6,0,3-1.3,3-3V113c0-1.6-1.3-3-3-3h-11.4
					c-0.7,2.1-1.6,4.2-2.6,6c-4.3,7.6-11.3,13.2-19.8,15.5l-29.2,8.2C377.2,140.3,375.1,140.7,372.9,140.9z"/>
				<path class="st18" d="M442.3,163.3h-66.4c-2,0-3.6-1.6-3.6-3.6v-19.4l0.6,0c2.2-0.2,4.3-0.5,6.3-1.1l29.2-8.2
					c8.3-2.3,15.1-7.7,19.3-15.2c1-1.8,1.9-3.8,2.5-5.9l0.1-0.5h11.9c2,0,3.6,1.6,3.6,3.6v46.7C445.9,161.7,444.3,163.3,442.3,163.3
					z M373.6,141.5v18.2c0,1.3,1,2.3,2.3,2.3h66.4c1.3,0,2.3-1,2.3-2.3V113c0-1.3-1-2.3-2.3-2.3h-10.9c-0.7,2-1.5,3.9-2.5,5.7
					c-4.4,7.8-11.5,13.4-20.2,15.9l-29.2,8.2C377.6,140.9,375.6,141.3,373.6,141.5z"/>
			</g>
		</g>
		<g id="XMLID_4985_">
			<path class="st3" d="M372,137.8c-5,0-9.9-1.3-14.3-3.8c-6.8-3.8-11.8-10.1-13.9-17.6c-2.1-7.5-1.2-15.4,2.7-22.3
				c3.8-6.8,10.1-11.8,17.6-13.9l27.2-7.6c7.5-2.1,15.4-1.2,22.3,2.7c6.8,3.8,11.8,10.1,13.9,17.6c2.1,7.5,1.2,15.4-2.7,22.3
				c-3.8,6.8-10.1,11.8-17.6,13.9l-27.2,7.6C377.3,137.4,374.6,137.8,372,137.8z"/>
			<path class="st18" d="M372,138.5L372,138.5c-5.1,0-10.1-1.3-14.6-3.9c-7-3.9-12-10.3-14.2-18c-2.2-7.7-1.2-15.8,2.7-22.8
				c3.9-7,10.3-12,18-14.2l27.2-7.6c7.7-2.2,15.8-1.2,22.8,2.7c7,3.9,12,10.3,14.2,18c2.2,7.7,1.2,15.8-2.7,22.8
				c-3.9,7-10.3,12-18,14.2l-27.2,7.6C377.4,138.1,374.7,138.5,372,138.5z M399.3,72.2c-2.6,0-5.2,0.4-7.8,1.1l-27.2,7.6
				c-7.4,2.1-13.5,6.9-17.2,13.6c-3.7,6.7-4.7,14.4-2.6,21.8c2.1,7.4,6.9,13.5,13.6,17.2c4.3,2.4,9.1,3.7,14,3.7
				c2.6,0,5.2-0.4,7.8-1.1l27.2-7.6c7.4-2.1,13.5-6.9,17.2-13.6c3.7-6.7,4.7-14.4,2.6-21.8c-2.1-7.4-6.9-13.5-13.6-17.2
				C408.9,73.4,404.1,72.2,399.3,72.2z"/>
		</g>
		<g id="XMLID_4974_">
			<path id="XMLID_499_" d="M392.5,87c-0.2-0.8-1.1-3.9-1.1-3.9l-0.1-0.2l-1.5,0.4c0,0-4.8,1.4-5.9,1.8c-2.4,0.7-4.5,1.4-6.4,2.1
				l-0.2,0.1l0.3,1c0,0,4.4-1,6.8-1.6c1.1-0.3,2.2-0.6,3.3-0.8c0.7-0.2,1.5-0.4,2.4-0.6c0.1,0.5,0.5,1.8,0.7,2.4
				c0,0,1.2,4.5,1.4,5.1c0.4,1.5,2,7,2.4,8.1c0.3,0.9,0.7,2.3,0.7,2.4c0,0.2,0,0.4,0,0.5c-0.1,0.3-0.3,0.6-0.6,0.8
				c-0.1,0-0.8,0.3-1.5,0.5c-1.1,0.4-3.5,1.1-3.5,1.1l0.3,1c0,0,2.4-0.6,3.6-0.8c0.1,0,1.7-0.4,1.8-0.5c0.4-0.2,0.7-0.4,1-0.7
				c0.3-0.3,0.4-0.7,0.5-1.1c0.1-0.4,0.1-0.8,0.1-1.2c0-0.1,0-0.1,0-0.2l-0.6-2.3c-0.2-1-0.5-1.9-0.8-2.9c0,0-1-3.7-1.4-5.2
				C393.8,91.4,392.5,87,392.5,87z"/>
			<path id="XMLID_498_" d="M374,98.6l-0.1-0.5c-0.1-0.4-0.2-0.7-0.4-1.1c0,0-0.4-1.1-0.5-1.4c0,0-0.9-2.4-1-2.6l-0.6-1.4l-0.6,0.2
				l0.2,1.5c0,0.2,0.2,1.2,0.5,2.6c0.1,0.4,0.3,1.6,0.3,1.6c0.1,0.4,0.2,0.7,0.3,1.1c0,0.2,0.1,0.3,0.1,0.6c0.1,0.3,0.7,2.4,0.7,2.4
				s0.6,2.2,0.7,2.5l0,0l0.2,0.5c0.3,0.9,0.6,1.8,0.9,2.6c0.5,1.4,0.9,2.3,1,2.5l0.6,1.3l0.6-0.2l-0.2-1.5c0-0.2-0.2-1.2-0.5-2.6
				c-0.2-0.8-0.4-1.7-0.6-2.7c0,0-0.3-1.2-0.4-1.5l-0.4-1.5C374.7,101.1,374.1,99,374,98.6z"/>
			<path id="XMLID_497_" d="M384.8,94.1l0.1,0c0.1,0,0.2-0.1,0.3-0.1c0.7-0.2,1.5-0.5,2.1-0.7c0.5-0.2,1-0.4,1.5-0.6
				c0.4-0.2,0.6-0.3,0.6-0.3l1.1-0.5l-0.2-0.6l-1.2,0.1c0,0-1.7,0.2-2.2,0.3c-0.7,0.1-2.5,0.5-2.6,0.6c-0.2,0.1-1,0.3-1.3,0.3
				c-0.1-0.2-0.1-0.3-0.2-0.5c-0.2-0.5-0.4-1.1-0.6-1.7c-0.2-0.4-0.8-1.9-0.8-1.9l0-0.1l-0.5,0.2l0,0.1c0,0,0.2,1.6,0.3,2.1
				c0.1,0.6,0.2,1.2,0.3,1.8c0,0.2,0.1,0.3,0.1,0.5l-0.5,0.1c-0.2,0.1-0.7,0.2-1,0.3l-0.2,0.1c-0.3,0.1-1.8,0.6-2.1,0.7
				c-0.5,0.2-2,0.8-2,0.8l-1.1,0.5l0.2,0.6l1.2-0.1c0,0,0.2,0,0.6-0.1c0.5-0.1,1.1-0.2,1.6-0.3c0.3-0.1,1.2-0.3,1.2-0.3
				c0.3-0.1,0.6-0.1,0.9-0.2c0.1,0,0.3-0.1,0.4-0.1l0,0c0.2-0.1,0.5-0.1,0.8-0.2l0.4-0.1c0,0,0,0.1,0,0.1c0,0.1,0.1,0.2,0.1,0.4
				c0,0.2,0.1,0.3,0.1,0.4l0,0.1l-0.6,1c-0.1,0.2-0.6,1-0.7,1.2c-0.2,0.5-1.1,2.2-1.3,2.4l-0.5,1c0,0-0.9,2.2-1.2,2.8l-0.1,0.1
				l0.9-0.1c0,0,0.1,0,0.1,0c0.2-0.1,0.4-0.2,1.5-2.1c0,0,1.8-2.9,2.4-3.9l0.2,0.8c0.1,0.2,0.2,0.8,0.3,1.1l0.1,0.2
				c0.3,0.8,0.5,1.7,0.8,2.4c0.2,0.5,0.9,2.3,0.9,2.3l0.6,1.3l0,0.1l0.5-0.2l-0.2-1.4c0,0-0.3-1.9-0.4-2.4c-0.1-0.7-0.3-1.6-0.5-2.4
				c0,0,0-0.1-0.1-0.3c-0.1-0.3-0.2-0.9-0.3-1.1l-0.2-0.8c0.5,0.2,1.5,0.8,4,2l0.1,0.1c2.2,1.1,2.2,1,2.4,1l0.9-0.3l-0.7-0.6
				c-0.3-0.3-1.7-1.2-1.9-1.3c0,0-1.3-0.9-1.5-1c0,0-1.3-0.8-1.7-1c-0.2-0.1-1-0.6-1.3-0.7l-1-0.6l0-0.1c0-0.1-0.1-0.3-0.2-0.5
				l-0.1-0.2c0,0,0-0.1,0-0.1l0.4-0.1C384.3,94.2,384.6,94.1,384.8,94.1z"/>
			<path id="XMLID_490_" d="M375.9,90.3c0-0.1-0.1-0.1-0.2-0.3c-0.1-0.2-0.3-0.4-0.4-0.6c-0.4-0.5-0.9-1-1.5-1.4
				c-0.5-0.4-1.2-0.8-1.7-1.1c-0.2-0.1-0.5-0.2-0.6-0.3c-0.2-0.1-0.3-0.1-0.3-0.1s-0.2-0.1-0.3-0.1c-0.2,0.1-0.4,0.4-0.4,0.6
				c0,0.1,0.1,0.3,0.1,0.3s0.1,0.1,0.2,0.3c0.1,0.2,0.3,0.4,0.4,0.6c0.4,0.5,0.9,1,1.5,1.4c0.5,0.4,1.2,0.8,1.7,1.1
				c0.2,0.1,0.5,0.2,0.6,0.3c0.2,0.1,0.2,0.1,0.3,0.1c0.1,0,0.3,0.1,0.3,0c0.2-0.1,0.4-0.4,0.4-0.5C376.1,90.4,376,90.3,375.9,90.3z
				"/>
		</g>
		<g id="XMLID_4973_">
			<path d="M368.6,130.6l-3-10.5l2.8-0.8c1-0.3,1.7-0.4,2.1-0.4c0.6,0,1.1,0.2,1.6,0.7c0.5,0.4,0.8,1.1,1.1,1.9
				c0.2,0.8,0.2,1.4,0.1,2c-0.1,0.6-0.4,1.1-0.8,1.4c-0.4,0.3-1.1,0.6-2.1,0.9l-1.1,0.3l1.1,4L368.6,130.6z M367.9,121.3l0.8,3
				l1-0.3c0.6-0.2,1.1-0.4,1.3-0.5c0.2-0.2,0.4-0.4,0.4-0.7c0.1-0.3,0.1-0.6,0-0.9c-0.1-0.4-0.3-0.6-0.5-0.8
				c-0.2-0.2-0.5-0.3-0.7-0.3c-0.2,0-0.7,0.1-1.5,0.3L367.9,121.3z"/>
			<path d="M376.7,128.3l-2.9-10.5l1.7-0.5l2.4,8.7l4.3-1.2l0.5,1.8L376.7,128.3z"/>
			<path d="M391.9,124l-1.9,0.5l-1.4-2.2l-3.5,1l0,2.6l-1.9,0.5l0.4-11.5l1.8-0.5L391.9,124z M387.5,120.8l-2.3-3.6l-0.1,4.2
				L387.5,120.8z"/>
			<path d="M394,123.4l-1.2-4.4l-4.9-5.2l2-0.6l3.2,3.6l0.8-4.7l2-0.6l-1.5,7l1.2,4.4L394,123.4z"/>
			<path d="M399.8,121.8l-3-10.5l6.4-1.8l0.5,1.8l-4.7,1.3l0.7,2.3l4.3-1.2l0.5,1.8l-4.3,1.2l0.8,2.9l4.8-1.4l0.5,1.8L399.8,121.8z"
				/>
			<path d="M407.8,119.6l-3-10.5l3.7-1c0.9-0.3,1.6-0.4,2.1-0.3c0.5,0.1,0.9,0.3,1.3,0.7c0.4,0.4,0.7,0.9,0.9,1.6
				c0.2,0.8,0.2,1.5,0,2.2c-0.3,0.6-0.7,1.1-1.4,1.4c0.4,0.2,0.8,0.4,1.2,0.6c0.3,0.3,0.8,0.7,1.5,1.4l1.6,1.8l-2.1,0.6l-1.9-1.9
				c-0.7-0.7-1.1-1.1-1.4-1.3c-0.2-0.2-0.4-0.3-0.6-0.3c-0.2,0-0.5,0-0.9,0.1l-0.4,0.1l1.2,4.4L407.8,119.6z M407.9,113l1.3-0.4
				c0.8-0.2,1.3-0.4,1.5-0.5s0.3-0.3,0.4-0.6c0.1-0.2,0.1-0.5,0-0.9c-0.1-0.3-0.2-0.6-0.4-0.8c-0.2-0.2-0.4-0.3-0.7-0.3
				c-0.2,0-0.7,0.1-1.4,0.3l-1.4,0.4L407.9,113z"/>
		</g>
		<g id="XMLID_4967_">
			<g id="XMLID_4972_">
				<path d="M385.6,146.6h3.3c0.9,0,1.5,0.1,1.9,0.2c0.4,0.2,0.7,0.5,0.9,0.9c0.3,0.4,0.4,0.9,0.4,1.4c0,0.5-0.1,0.9-0.3,1.3
					c-0.2,0.4-0.5,0.7-0.8,0.9c0.5,0.2,0.9,0.5,1.2,0.9c0.3,0.4,0.4,0.9,0.4,1.5c0,0.7-0.2,1.4-0.5,1.9c-0.4,0.5-0.8,0.8-1.3,0.9
					c-0.3,0.1-1.1,0.1-2.3,0.1h-2.8V146.6z M387.3,148.2v2.3h1.1c0.7,0,1.1,0,1.2,0c0.3,0,0.5-0.2,0.7-0.4c0.2-0.2,0.2-0.5,0.2-0.8
					c0-0.3-0.1-0.5-0.2-0.7c-0.1-0.2-0.3-0.3-0.5-0.3c-0.2,0-0.7-0.1-1.6-0.1H387.3z M387.3,152.3v2.7h1.6c0.7,0,1.1,0,1.3-0.1
					c0.2-0.1,0.4-0.2,0.5-0.4c0.1-0.2,0.2-0.5,0.2-0.8c0-0.3-0.1-0.6-0.2-0.8c-0.1-0.2-0.3-0.4-0.6-0.4c-0.2-0.1-0.7-0.1-1.4-0.1
					H387.3z"/>
				<path d="M401.4,156.7h-1.8l-0.7-2.3h-3.3l-0.7,2.3h-1.8l3.2-10.1h1.8L401.4,156.7z M398.3,152.7l-1.1-3.7l-1.1,3.7H398.3z"/>
				<path d="M402.3,156.7v-10.1h1.6l3.4,6.7v-6.7h1.6v10.1h-1.7l-3.3-6.6v6.6H402.3z"/>
				<path d="M410.7,156.7v-10.1h1.7v4.5l3.4-4.5h2.3l-3.1,3.9l3.3,6.2H416l-2.3-4.7l-1.4,1.7v3.1H410.7z"/>
				<path d="M419,156.7v-10.1h6.1v1.7h-4.5v2.2h4.2v1.7h-4.2v2.7h4.6v1.7H419z"/>
				<path d="M426.8,156.7v-10.1h3.5c0.9,0,1.5,0.1,1.9,0.3c0.4,0.2,0.7,0.5,1,0.9s0.4,1,0.4,1.6c0,0.8-0.2,1.4-0.6,1.9
					c-0.4,0.5-0.9,0.8-1.6,0.9c0.4,0.3,0.7,0.5,0.9,0.8c0.2,0.3,0.6,0.9,1,1.6l1,2h-2l-1.2-2.2c-0.4-0.8-0.7-1.3-0.9-1.5
					c-0.2-0.2-0.3-0.3-0.5-0.4c-0.2-0.1-0.5-0.1-0.8-0.1h-0.3v4.2H426.8z M428.4,150.8h1.2c0.8,0,1.2,0,1.4-0.1
					c0.2-0.1,0.4-0.2,0.5-0.4c0.1-0.2,0.2-0.5,0.2-0.8c0-0.3-0.1-0.6-0.2-0.8c-0.1-0.2-0.3-0.3-0.5-0.4c-0.2-0.1-0.6-0.1-1.4-0.1
					h-1.3V150.8z"/>
			</g>
			<g id="XMLID_4968_">
				<path id="XMLID_4971_" class="st22" d="M402.7,133.2c-0.4,1.1-0.9,2.1-1.3,3c-1.3,2.5-3,4.4-4.5,6.6c3.7-2.1,6.1-5.6,7.6-10.1
					L402.7,133.2z"/>
				<path id="XMLID_4970_" class="st22" d="M413.1,138.2c0.1-1.8,0.2-3.6,0.2-5.4c1.7-0.3,4.2,0.1,5.1-1.1c-1-1-3.7-0.5-5-0.3
					c0.1-0.5,0.1-1.1,0.2-1.6c-0.5,0.2-1.1,0.5-1.6,0.7c0,0.4,0,0.8-0.1,1.2c-1.5,0.3-3.2,0.4-4.8,0.7c0.4,0.3,1.4,0.7,1.4,0.7
					s2.2,0.2,3.3,0c0,1.8,0,3.5-0.1,5.4c-3.1,0.3-6,0.7-9.4,0.7c0.5,1.2,1.6,1.4,3.1,1.4c4.6-0.1,11.7-1.3,17.1-0.2
					C421.7,137,416.1,138.2,413.1,138.2z"/>
			</g>
		</g>
	</g>
	<g id="XMLID_4994_">
		<path id="XMLID_5121_" class="st0" d="M638.7,386.6c7.1,0,9.3-1.9,12.3-7.3c1.1,0.2,2,0.5,2.8,1.3c-1.4,2.4-2.6,5.4-3.4,8.8
			c-2.4-0.2-7.7-0.2-12.3-0.2c-4.9,0-11.2,0-16.2,0.2c0.1-0.9,0.1-1.7,0.4-2.5c3.8-0.3,4.5-1.4,5.4-5.9l4.6-23.6
			c0.7-3.6-0.4-4.3-3.7-4.7c-0.2-0.7-0.2-1.7-0.1-2.5c2.4,0.2,4.9,0.2,7.5,0.2c2.6,0,5.7,0,8.2-0.1c0,0.9-0.2,1.8-0.5,2.4
			c-3.9,0.4-4.8,1.4-5.6,5.5l-4.5,23.5c-0.8,4.3-0.2,5.1,4.6,5.1H638.7z"/>
		<path id="XMLID_5118_" class="st0" d="M667.7,370.2l-3.5,11.1c-1.2,3.7-0.9,4.4,0.3,4.4c0.8,0,2-0.5,3.3-1.7c0.6,0.4,1,1,1.1,1.8
			c-2.5,2.4-4.9,3.9-7.3,3.9c-4.3,0-5-3.3-3.5-8.3l2.6-8.3c1.9-5.8,1.7-6.3-2.6-6.3c-0.1-0.9,0.1-1.6,0.4-2.2c2-0.2,5.8-1.5,7.3-2.4
			C668.5,363.4,669.1,365.5,667.7,370.2z M671.4,352.7c-0.4,2-2.1,3.4-4.2,3.4c-2,0-3.1-1.4-2.7-3.4c0.5-2.1,2.2-3.5,4.2-3.5
			C670.8,349.2,671.9,350.5,671.4,352.7z"/>
		<path id="XMLID_5116_" class="st0" d="M699.1,368.2c0,4.5-3.5,10.5-15.8,21.5c-1.1,0.1-2.2-0.1-3.1-0.5c-0.5-7.1-1.8-14-3.1-18.7
			c-0.8-2.8-1.3-3.7-4.6-3.6c0-0.3,0.1-1.6,0.3-2.2c2.1-0.2,5-1.4,6.4-2.4c2.4,0.7,2.6,1.8,3.6,6.4c1.1,5.5,2.2,12,2.4,16.1
			c5.4-5.7,8-10.6,8-13.4c0-3-1.1-4.1-3.9-4.5c-0.3-0.6-0.4-1.4-0.4-2.1c2.2-0.6,5.3-1.8,6.3-2.5
			C697.8,363.1,699.1,364.9,699.1,368.2z"/>
		<path id="XMLID_5113_" class="st0" d="M722.7,368.8c-1.3,5.1-9.5,8.5-15,8.8c-0.4,4.1,0.3,8,4.5,8c2,0,4.3-0.9,6.5-3.2
			c0.6,0.4,1.1,0.9,1.3,1.7c-2.7,3.2-6.5,5.7-11.2,5.7c-7.3,0-7.9-7.2-6.6-13.2c2.2-9.7,8.6-14.1,14.4-14.1
			C721.5,362.4,723.4,365.7,722.7,368.8z M714.9,365.3c-2.7,0-5.6,3.3-6.9,10.1c4.7-0.4,8.7-2.4,9.5-5.9
			C718,367.2,717,365.3,714.9,365.3z"/>
		<path id="XMLID_5089_" class="st1" d="M637.5,385.9c7.1,0,9.3-1.9,12.3-7.3c1.1,0.2,2,0.5,2.8,1.3c-1.4,2.4-2.6,5.4-3.4,8.8
			c-2.4-0.2-7.7-0.2-12.3-0.2c-4.9,0-11.2,0-16.2,0.2c0.1-0.9,0.1-1.7,0.4-2.5c3.8-0.3,4.5-1.4,5.4-5.9l4.6-23.6
			c0.7-3.6-0.4-4.3-3.7-4.7c-0.2-0.7-0.2-1.7-0.1-2.5c2.4,0.2,4.9,0.2,7.5,0.2c2.6,0,5.7,0,8.2-0.1c0,0.9-0.2,1.8-0.5,2.4
			c-3.9,0.4-4.8,1.4-5.6,5.5l-4.5,23.5c-0.8,4.3-0.2,5.1,4.6,5.1H637.5z"/>
		<path id="XMLID_5086_" class="st1" d="M666.5,369.5l-3.5,11.1c-1.2,3.7-0.9,4.4,0.3,4.4c0.8,0,2-0.5,3.3-1.7c0.6,0.4,1,1,1.1,1.8
			c-2.5,2.4-4.9,3.9-7.3,3.9c-4.3,0-5-3.3-3.5-8.3l2.6-8.3c1.9-5.8,1.7-6.3-2.6-6.3c-0.1-0.9,0.1-1.6,0.4-2.2c2-0.2,5.8-1.5,7.3-2.4
			C667.4,362.6,667.9,364.8,666.5,369.5z M670.2,352c-0.4,2-2.1,3.4-4.2,3.4c-2,0-3.1-1.4-2.7-3.4c0.5-2.1,2.2-3.5,4.2-3.5
			C669.6,348.4,670.8,349.8,670.2,352z"/>
		<path id="XMLID_5084_" class="st1" d="M698,367.5c0,4.5-3.5,10.5-15.8,21.5c-1.1,0.1-2.2-0.1-3.1-0.5c-0.5-7.1-1.8-14-3.1-18.7
			c-0.8-2.8-1.3-3.7-4.6-3.6c0-0.3,0.1-1.6,0.3-2.2c2.1-0.2,5-1.4,6.4-2.4c2.4,0.7,2.6,1.8,3.6,6.4c1.1,5.5,2.2,12,2.4,16.1
			c5.4-5.7,8-10.6,8-13.4c0-3-1.1-4.1-3.9-4.5c-0.3-0.6-0.4-1.4-0.4-2.1c2.2-0.6,5.3-1.8,6.3-2.5C696.6,362.4,698,364.2,698,367.5z"
			/>
		<path id="XMLID_5081_" class="st1" d="M721.5,368.1c-1.3,5.1-9.5,8.5-15,8.8c-0.4,4.1,0.3,8,4.5,8c2,0,4.3-0.9,6.5-3.2
			c0.6,0.4,1.1,0.9,1.3,1.7c-2.7,3.2-6.5,5.7-11.2,5.7c-7.3,0-7.9-7.2-6.6-13.2c2.2-9.7,8.6-14.1,14.4-14.1
			C720.3,361.7,722.2,364.9,721.5,368.1z M713.7,364.6c-2.7,0-5.6,3.3-6.9,10.1c4.7-0.4,8.7-2.4,9.5-5.9
			C716.8,366.4,715.8,364.6,713.7,364.6z"/>
		<linearGradient id="XMLID_2_" gradientUnits="userSpaceOnUse" x1="635.341" y1="391.2588" x2="642.7108" y2="349.4627">
			<stop  offset="0" style="stop-color:#FFFFFF;stop-opacity:0"/>
			<stop  offset="0.5448" style="stop-color:#FFF5E2;stop-opacity:0.3"/>
			<stop  offset="1" style="stop-color:#FFFEFC;stop-opacity:0.15"/>
		</linearGradient>
		<path id="XMLID_5024_" class="st23" d="M637.5,385.9c7.1,0,9.3-1.9,12.3-7.3c1.1,0.2,2,0.5,2.8,1.3c-1.4,2.4-2.6,5.4-3.4,8.8
			c-2.4-0.2-7.7-0.2-12.3-0.2c-4.9,0-11.2,0-16.2,0.2c0.1-0.9,0.1-1.7,0.4-2.5c3.8-0.3,4.5-1.4,5.4-5.9l4.6-23.6
			c0.7-3.6-0.4-4.3-3.7-4.7c-0.2-0.7-0.2-1.7-0.1-2.5c2.4,0.2,4.9,0.2,7.5,0.2c2.6,0,5.7,0,8.2-0.1c0,0.9-0.2,1.8-0.5,2.4
			c-3.9,0.4-4.8,1.4-5.6,5.5l-4.5,23.5c-0.8,4.3-0.2,5.1,4.6,5.1H637.5z"/>
		<linearGradient id="XMLID_3_" gradientUnits="userSpaceOnUse" x1="659.95" y1="389.0577" x2="667.1337" y2="348.3173">
			<stop  offset="0" style="stop-color:#FFFFFF;stop-opacity:0"/>
			<stop  offset="0.5448" style="stop-color:#FFF5E2;stop-opacity:0.3"/>
			<stop  offset="1" style="stop-color:#FFFEFC;stop-opacity:0.15"/>
		</linearGradient>
		<path id="XMLID_5021_" class="st24" d="M666.5,369.5l-3.5,11.1c-1.2,3.7-0.9,4.4,0.3,4.4c0.8,0,2-0.5,3.3-1.7c0.6,0.4,1,1,1.1,1.8
			c-2.5,2.4-4.9,3.9-7.3,3.9c-4.3,0-5-3.3-3.5-8.3l2.6-8.3c1.9-5.8,1.7-6.3-2.6-6.3c-0.1-0.9,0.1-1.6,0.4-2.2c2-0.2,5.8-1.5,7.3-2.4
			C667.4,362.6,667.9,364.8,666.5,369.5z M670.2,352c-0.4,2-2.1,3.4-4.2,3.4c-2,0-3.1-1.4-2.7-3.4c0.5-2.1,2.2-3.5,4.2-3.5
			C669.6,348.4,670.8,349.8,670.2,352z"/>
		<linearGradient id="XMLID_4_" gradientUnits="userSpaceOnUse" x1="680.8175" y1="388.999" x2="685.9059" y2="360.1414">
			<stop  offset="0" style="stop-color:#FFFFFF;stop-opacity:0"/>
			<stop  offset="0.5448" style="stop-color:#FFF5E2;stop-opacity:0.3"/>
			<stop  offset="1" style="stop-color:#FFFEFC;stop-opacity:0.15"/>
		</linearGradient>
		<path id="XMLID_5019_" class="st25" d="M698,367.5c0,4.5-3.5,10.5-15.8,21.5c-1.1,0.1-2.2-0.1-3.1-0.5c-0.5-7.1-1.8-14-3.1-18.7
			c-0.8-2.8-1.3-3.7-4.6-3.6c0-0.3,0.1-1.6,0.3-2.2c2.1-0.2,5-1.4,6.4-2.4c2.4,0.7,2.6,1.8,3.6,6.4c1.1,5.5,2.2,12,2.4,16.1
			c5.4-5.7,8-10.6,8-13.4c0-3-1.1-4.1-3.9-4.5c-0.3-0.6-0.4-1.4-0.4-2.1c2.2-0.6,5.3-1.8,6.3-2.5C696.6,362.4,698,364.2,698,367.5z"
			/>
		<linearGradient id="XMLID_5_" gradientUnits="userSpaceOnUse" x1="708.1544" y1="389.2996" x2="713.1227" y2="361.1233">
			<stop  offset="0" style="stop-color:#FFFFFF;stop-opacity:0"/>
			<stop  offset="0.5448" style="stop-color:#FFF5E2;stop-opacity:0.3"/>
			<stop  offset="1" style="stop-color:#FFFEFC;stop-opacity:0.15"/>
		</linearGradient>
		<path id="XMLID_5016_" class="st26" d="M721.5,368.1c-1.3,5.1-9.5,8.5-15,8.8c-0.4,4.1,0.3,8,4.5,8c2,0,4.3-0.9,6.5-3.2
			c0.6,0.4,1.1,0.9,1.3,1.7c-2.7,3.2-6.5,5.7-11.2,5.7c-7.3,0-7.9-7.2-6.6-13.2c2.2-9.7,8.6-14.1,14.4-14.1
			C720.3,361.7,722.2,364.9,721.5,368.1z M713.7,364.6c-2.7,0-5.6,3.3-6.9,10.1c4.7-0.4,8.7-2.4,9.5-5.9
			C716.8,366.4,715.8,364.6,713.7,364.6z"/>
	</g>
</g>
</svg>
